<svg xmlns="http://www.w3.org/2000/svg" version="1.1" width="970" height="590" viewBox="0 0 970 590"><g class="cities"><g class="sf2368xin_jiang"><path fill="rgb(146,200,255)" stroke="rgb(255,255,255)" d="M483.20638588002487,197.86809329993673L483.20638588002487,198.40183299463985L479.37995602579906,201.00696819889782L480.1469464197419,203.08449274266036L481.67240509213934,204.12107844720094L479.37995602579906,207.73781163841886L473.2355107587683,211.33714921684162L472.4685203648254,209.27106871105246L467.09958760722566,212.86308817996064L462.5061673590569,217.4564367663055L460.9721865711714,222.02221752320918L454.0692730256859,222.53908098506008L450.2257989404836,234.0669549469746L447.92482775865517,237.54523613474402L447.92482775865517,240.0313439689058L447.92482775865517,241.01921790233376L428.75859002557286,246.90998412762326L430.2925708134585,249.85548864319583L432.5850198797988,248.87847035955593L431.81802948585596,254.23754183706L436.42849396500105,258.5961627478963L438.7294651468296,262.4511887501452L433.3520102737415,265.80969012892473L434.1190006676844,267.7227802214699L436.42849396500105,268.6670856411241L436.42849396500105,273.4360708723817L434.88599106162724,273.8999022312868L427.2160871221989,271.525364852706L426.4490967282562,273.4360708723817L424.91511594037047,273.4360708723817L420.32169569220184,271.0602313529684L416.47822160699945,270.57368137587486L414.9527629346021,269.1547377609544L404.21489741940263,269.6209231976801L394.2355001826577,272.4759782843125L393.46850978871487,275.79476542745846L388.87508954054624,277.6854312158769L384.26462506140103,277.2236541145889L376.59472112197284,280.98410525365324L367.390836394659,280.5240966092553L365.09838732831884,277.6854312158769L361.25491324311645,277.2236541145889L357.42848338889064,281.46476154834386L354.36052181311936,282.40440415689005L343.6141341824315,280.5240966092553L342.08015339454596,281.9242698325068L342.84714378848867,283.33260527367685L342.08015339454596,282.8634142470598L339.02071393426286,287.0770575547003L338.25372354032004,290.3403696715964L332.1178003887775,290.8159067951179L331.3508099948348,292.199711673737L324.4478964493493,288.010669504605L322.91391566146365,282.40440415689005L322.91391566146365,279.5824048943048L317.5364607883756,280.04291607462204L312.1675280307759,278.1679323451929L309.8665568489474,275.79476542745846L306.80711738866444,276.2783333957549L304.4976240913477,273.8999022312868L305.2731366007788,269.1547377609544L303.73063369740487,266.766781916777L300.6626721216336,266.2777385867034L299.90420384317895,263.89220703558453L296.83624226740767,263.4014741816892L295.29373936403385,264.3613328664327L294.52674897009103,262.92112877968833L292.23429990375087,262.4511887501452L292.23429990375087,260.996959329673L295.29373936403385,260.996959329673L297.6032326613506,258.5961627478963L295.29373936403385,257.14586443122465L296.0607297579767,255.20813311385882L295.29373936403385,247.41071905328323L290.7003191158652,244.94757763247196L289.1663383279796,244.94757763247196L288.39934793403665,246.43072802275935L286.08985463672,245.92938132870353L285.3228642427772,242.9803464792725L286.08985463672,241.50173144774823L283.0304151764369,237.06030378885987L286.85684503066284,235.57057717852734L286.85684503066284,233.5798710573577L286.08985463672,232.58261810647144L287.62383542460566,229.57206207318018L295.29373936403385,226.05798593088917L294.52674897009103,224.04274718801054L298.3702230552934,225.05102500715861L301.4296625155764,222.53908098506008L302.96364330346205,226.5609743702156L308.34109817654996,225.56585808876508L312.943040540207,218.47341777325067L319.0704415762614,218.47341777325067L323.68090605540647,215.93974090162243L323.68090605540647,213.88624301349427L341.3216851160913,206.17845130749197L342.08015339454596,203.5914485940446L341.3216851160913,199.433407562294L342.08015339454596,196.82269956503535L344.3811245763744,196.31107685765704L343.6141341824315,194.21435356026404L346.69061787369105,192.63786267108645L343.6141341824315,180.97122645917977L343.6141341824315,175.5930874910431L339.7877043282058,172.90675053163733L339.7877043282058,171.27078501902417L355.12751220706207,165.84263079087054L358.18695166734517,168.02375148472748L362.03042575254756,168.02375148472748L359.7209324552308,162.5459957161271L366.6238460007162,142.51821782396547L372.0013008738042,145.32421398325693L381.20518560111793,145.32421398325693L382.7306442735154,147.02224798457888L388.1080991466034,144.77394596076192L389.64207993448895,141.94055408388527L388.1080991466034,131.12568473026607L390.4090703284319,127.09233370347812L397.31198387391726,125.34340581714213L399.6044329402574,121.87055519101506L398.8374425463146,120.10783490705018L399.6044329402574,117.76759106899158L408.04132727362844,117.19427022629088L408.8083176675714,119.53653857174635L407.2743368796856,120.70457333930062L410.3422984554569,123.02157259821183L409.5753080615142,124.77659337807069L414.1857725406593,127.65718441087319L415.71123121305664,130.5381985371422L419.554705298259,132.83413548265577L423.38113515248494,132.27363023899807L424.91511594037047,134.5636618374861L427.99159963163004,134.5636618374861L430.2925708134585,136.83328481979999L431.81802948585596,142.51821782396547L434.88599106162724,145.89902085751044L436.42849396500105,150.93911679892068L434.88599106162724,154.26644114482593L436.42849396500105,158.15477952006694L433.3520102737415,161.4477280907052L433.3520102737415,164.2023343532157L434.88599106162724,168.02375148472748L441.0219142131698,169.64309953233953L457.8957028799118,171.27078501902417L468.6420905105996,178.82958917752296L474.00250115271103,179.35369210725776L474.00250115271103,182.5732694744675L475.5364819405967,184.1599249491498L478.61296563185624,192.09991026127318L482.43939548608205,195.77581732756403Z" box-shadow="inset 0 0 2px lightgray"></path></g><g class="sf2368xi_zang"><path fill="rgb(146,200,255)" stroke="rgb(255,255,255)" d="M331.3508099948348,292.199711673737L332.1178003887775,290.8159067951179L338.25372354032004,290.3403696715964L339.02071393426286,287.0770575547003L342.08015339454596,282.8634142470598L342.84714378848867,283.33260527367685L342.08015339454596,281.9242698325068L343.6141341824315,280.5240966092553L354.36052181311936,282.40440415689005L357.42848338889064,281.46476154834386L361.25491324311645,277.2236541145889L365.09838732831884,277.6854312158769L367.390836394659,280.5240966092553L376.59472112197284,280.98410525365324L384.26462506140103,277.2236541145889L388.87508954054624,277.6854312158769L393.46850978871487,275.79476542745846L394.2355001826577,272.4759782843125L404.21489741940263,269.6209231976801L414.9527629346021,269.1547377609544L416.47822160699945,270.57368137587486L420.32169569220184,271.0602313529684L424.91511594037047,273.4360708723817L421.8556764800875,273.8999022312868L422.6226668740303,275.33196565496405L424.91511594037047,276.74062072315536L424.91511594037047,280.5240966092553L422.6226668740303,280.98410525365324L422.6226668740303,282.40440415689005L423.38113515248494,286.1424494977604L425.6821063343134,286.62026278025013L424.91511594037047,288.47710328803134L425.6821063343134,291.7455664126127L424.14812554642765,295.44421900987277L427.99159963163004,300.989246253251L433.3520102737415,304.6501801800638L439.49645554077233,304.6501801800638L444.09839790442936,307.8605329758351L446.3993690862578,307.8605329758351L447.16635948020064,308.76269746029305L453.3022826317432,308.76269746029305L457.8957028799118,311.49423531979187L460.2051961772286,310.58461557349546L463.27315775299985,311.9588090320231L467.8665780011685,310.139588338444L472.4685203648254,311.9588090320231L470.94306169242793,313.3208978471476L472.4685203648254,312.8570017210614L473.2355107587683,314.22785633469255L474.00250115271103,314.67093916669995L474.00250115271103,316.48137966252335L474.76949154665385,318.29838275894423L477.8459752379134,319.6413273942191L479.37995602579906,318.29838275894423L480.9054146981964,320.54224229772757L481.67240509213934,316.94349044241864L483.9733762739677,319.20056972434577L487.04985996522726,319.6413273942191L486.28286957128444,316.48137966252335L490.8762898194532,315.57659462566784L491.6432802133959,310.58461557349546L494.71976390465545,311.0496434799492L498.5461937588814,312.8570017210614L500.8471649407097,317.8369334770469L504.6906390259121,322.34152664404996L502.38966784408376,324.5858975224787L505.44910730436663,329.0689925966101L506.9830880922524,344.1181098276695L505.44910730436663,345.44587143241324L505.44910730436663,348.5146367172967L503.9236486319693,348.067067552676L503.9236486319693,346.7621744428748L503.15665823802647,347.6387768230212L502.38966784408376,351.5743470132125L503.9236486319693,353.3187417113647L503.15665823802647,354.6154721720127L500.0801745467669,355.49518161472577L499.3131841528242,352.87322738438576L498.5461937588814,355.49518161472577L493.1857831167698,351.5743470132125L490.8762898194532,355.9202739636803L491.6432802133959,357.65752127424184L488.5838407531129,359.3919481358071L483.9733762739677,355.49518161472577L477.0789848439706,354.1898557053503L474.00250115271103,355.49518161472577L473.2355107587683,357.23312225420386L464.04014814694267,361.1331923809438L460.9721865711714,366.30195679085944L458.66269327385464,367.1626433299847L445.6323786923149,368.02265917199793L444.86538829837207,361.99796037578915L441.0219142131698,361.1331923809438L441.0219142131698,357.65752127424184L439.49645554077233,356.36450686864146L436.42849396500105,358.1010309703948L433.3520102737415,355.9202739636803L425.6821063343134,354.6154721720127L424.14812554642765,355.0602517843945L419.554705298259,360.69093265803406L419.554705298259,363.2842276694405L418.7791927888279,364.5881412299707L416.47822160699945,362.42048478479785L417.2452120009424,356.7892517704671L415.71123121305664,355.49518161472577L411.117810964888,357.65752127424184L408.8083176675714,357.23312225420386L407.2743368796856,358.52508566853953L401.9054041220859,358.52508566853953L398.8374425463146,355.49518161472577L397.31198387391726,355.49518161472577L396.54499347997444,357.65752127424184L393.46850978871487,355.49518161472577L392.70151939477205,357.65752127424184L389.64207993448895,353.3187417113647L388.87508954054624,354.1898557053503L385.03161545534385,353.3187417113647L385.03161545534385,350.2641422932376L382.7306442735154,351.1280913330468L378.9042144192896,349.3897574399167L377.36171151591566,348.067067552676L376.59472112197284,344.5673982593897L375.82773072803,344.1181098276695L371.2343104798614,344.996968050429L368.1578267886018,341.03613115587996L358.953942061288,336.17396272635716L358.18695166734517,333.5118768254349L352.0510285158025,333.0773780183901L350.517047727917,336.6267947738363L348.9915890555195,334.40003133939416L340.5546947221485,330.8525152908218L337.4867331463772,327.2822100345727L331.3508099948348,325.93996649718105L329.0413166975179,323.2498807505982L329.816829206949,320.54224229772757L328.2743263035752,318.29838275894423L329.0413166975179,317.3852980737451L326.74034551568946,315.1339387196375L325.97335512174664,311.0496434799492L329.0413166975179,309.22863971928103L330.58381960089184,312.8570017210614L333.64325906117494,310.58461557349546L332.1178003887775,304.2022761482948L328.2743263035752,299.1481074504418L328.2743263035752,294.5184221685275L330.58381960089184,294.0654604784315Z" box-shadow="inset 0 0 2px lightgray"></path></g><g class="sf2368nei_meng_gu"><path fill="rgb(146,200,255)" stroke="rgb(255,255,255)" d="M490.10929942551036,197.357197468167L510.05957178351184,199.9660163145731L521.555905577166,198.91200521203524L529.992799910537,201.00696819889782L532.2937710923654,204.12107844720094L538.429694243908,205.14472805536104L543.8071491169959,208.24161528055498L548.4005693651646,209.27106871105246L553.7780242382527,208.24161528055498L553.7780242382527,210.81260590762838L558.3799666019096,211.83854454227054L564.5073676379639,207.73781163841886L579.0801851228774,201.51534553546327L596.7209641835624,201.51534553546327L605.1578585169334,197.86809329993673L610.5353133900213,191.04624613933265L618.9722077233923,186.8280456365685L618.9722077233923,185.2236319577023L614.3617432442472,178.28125252932233L617.4382269355068,170.7406916978768L618.9722077233923,169.64309953233953L633.5450252083059,173.98730315327964L638.1384454564746,171.27078501902417L641.2149291477342,165.84263079087054L651.1858042689908,165.28414561272768L655.7792245171596,162.00928059747758L656.5547370265906,158.69446974116892L658.8557082084192,154.8338241985586L665.7586217539043,153.72329087346156L666.5256121478474,150.93911679892068L669.5850516081302,151.48446269870766L674.1955160872753,148.70364311077407L678.0219459415014,149.25076414942055L679.555926729387,148.70364311077407L681.0984296327608,149.82228873715627L686.4588402748723,150.3685201215012L688.7598114567008,149.25076414942055L686.4588402748723,143.07030760524145L675.7294968751612,132.83413548265577L670.3520420020732,132.27363023899807L665.7586217539043,136.83328481979999L661.1481572747592,133.9791717503967L655.7792245171596,134.5636618374861L653.478253335331,136.83328481979999L650.4188138750482,133.9791717503967L649.6518234811052,130.5381985371422L652.7112629413882,129.38727905651353L652.7112629413882,125.34340581714213L660.3896889963047,108.322668747791L669.5850516081302,112.47152500954962L676.4964872691039,107.13243830638214L682.6324104206465,104.74545086314373L683.3994008145894,101.74936769490597L681.8654200267038,101.16184975141908L684.9333816024748,95.72885655380549L684.9333816024748,93.89415428318773L686.4588402748723,91.45781006584855L690.3023143600747,82.85698718923311L694.8957346082434,79.13514584971836L695.6627250021861,76.65562774840942L695.6627250021861,74.76523985861547L694.1287442143007,73.51113392474917L694.8957346082434,71.00942765777961L692.6032855419032,69.10202896771443L689.535323966132,69.74782555735692L689.535323966132,67.83659260934007L696.429715396129,60.20411871970646L701.7986481537287,58.92055077721204L704.8666097295002,63.387365143019906L699.5061990873885,70.36492458721443L703.3326289416143,72.2545328543207L704.0996193355572,74.15243233072135L706.409112632874,74.15243233072135L707.9430934207594,71.00942765777961L712.5365136689284,74.76523985861547L711.7695232749854,77.26601754310855L714.8460069662449,87.79952250440601L717.905446426528,89.0258087671092L720.9734080022993,87.17184620331761L727.1093311538418,88.3993334270483L728.6433119417275,87.17184620331761L731.7197956329869,87.17184620331761L733.2537764208726,83.48891512967305L735.546225487213,83.48891512967305L741.6906707542437,92.08130940818012L739.3896995724153,95.72885655380549L739.3896995724153,98.7528123276478L735.546225487213,104.16063383845648L734.0207668148155,108.322668747791L734.77923509327,117.19427022629088L730.9528052390442,117.76759106899158L727.8763215477848,131.12568473026607L726.3423407598989,125.93546788014851L710.2355424870998,140.8215059007536L715.6129973601878,149.25076414942055L718.6724368204709,147.02224798457888L718.6724368204709,145.89902085751044L719.4394272144136,145.89902085751044L720.2064176083563,147.58317135331538L720.2064176083563,147.02224798457888L720.2064176083563,149.82228873715627L715.6129973601878,150.93911679892068L717.1469781480735,155.37610338859764L713.3035040628711,158.15477952006694L712.5365136689284,162.00928059747758L710.2355424870998,159.80932055690863L708.7100838147023,160.9101678750436L704.8666097295002,158.15477952006694L704.0996193355572,161.4477280907052L705.6421222389313,162.00928059747758L708.7100838147023,167.4669968902835L707.1761030268169,172.3538318874484L709.4770742086453,179.90120798342537L716.3799877541305,177.20720153926175L719.4394272144136,186.28577457576557L717.905446426528,188.93433332467185L720.9734080022993,190.5305665387105L720.2064176083563,194.72743987216296L717.905446426528,195.2634644659767L716.3799877541305,197.357197468167L713.3035040628711,198.40183299463985L709.4770742086453,196.82269956503535L709.4770742086453,198.91200521203524L706.409112632874,198.40183299463985L704.0996193355572,201.51534553546327L701.7986481537287,201.00696819889782L693.3617538203578,205.67325450770022L690.3023143600747,210.31052632019163L687.9928210627581,204.63882999445087L684.9333816024748,202.5541231633278L683.3994008145894,203.5914485940446L682.6324104206465,210.31052632019163L684.1663912085321,211.33714921684162L682.6324104206465,214.9080152039952L674.9625064812183,214.9080152039952L672.6530131839015,209.79668865944905L674.1955160872753,209.27106871105246L674.1955160872753,205.67325450770022L672.6530131839015,206.17845130749197L671.1190323960161,204.12107844720094L671.8860227899588,202.04645816169898L669.5850516081302,199.433407562294L667.2926025417901,199.9660163145731L665.7586217539043,201.51534553546327L661.9151476687022,202.04645816169898L661.1481572747592,206.70624625985386L656.5547370265906,206.70624625985386L654.245243729274,209.27106871105246L653.478253335331,207.73781163841886L647.3423301837886,211.83854454227054L645.04135900196,211.33714921684162L644.2743686080172,205.67325450770022L641.2149291477342,205.14472805536104L638.1384454564746,209.27106871105246L638.9054358504175,211.83854454227054L635.8459963901345,213.38620711008735L636.604464668589,215.93974090162243L635.8459963901345,216.95875097121865L637.3714550625318,221.52750019399485L637.3714550625318,224.04274718801054L635.0790059961917,224.04274718801054L632.7780348143632,226.05798593088917L629.7015511231036,225.56585808876508L625.8751212688778,228.0791323310006L622.0316471836754,227.0748023018939L618.9722077233923,234.57585556124752L614.3617432442472,234.0669549469746L613.5947528503044,236.56404144252605L611.3023037839641,237.06030378885987L611.3023037839641,234.57585556124752L607.46735181425,238.05189233921965L602.8654094505931,236.05642756818713L603.6238777290478,238.05189233921965L600.5644382687648,238.53621600342439L601.3314286627076,239.52595489795675L592.8945343293365,248.87847035955593L593.6615247232793,252.2820662281418L592.1275439353938,252.76867357123558L591.3605535414508,252.2820662281418L590.5850410320197,255.68222479300636L585.9916207838511,256.6511025727558L581.3811563047059,253.74101532339148L578.3217168444229,251.30797543032173L573.7112523652777,250.33271222947616L571.4102811834493,248.87847035955593L575.2537552686516,241.50173144774823L573.7112523652777,237.06030378885987L569.8848225110519,238.05189233921965L566.0413484258496,244.46714605945687L565.2743580319067,254.71219738303523L552.2440434503669,258.5961627478963L544.5741395109388,254.23754183706L543.8071491169959,252.2820662281418L545.3411299048817,250.8313268829757L544.5741395109388,248.3786480905277L551.4770530564242,241.50173144774823L549.9345501530503,236.56404144252605L543.8071491169959,237.54523613474402L540.7306654257364,240.0313439689058L536.1372451775678,238.53621600342439L530.7597903044798,240.0313439689058L532.2937710923654,242.49872911349053L529.992799910537,244.94757763247196L526.166370056311,243.96456777800358L525.39085754688,241.01921790233376L523.0898863650515,242.0058644407476L521.555905577166,236.56404144252605L519.2634565108258,236.56404144252605L514.6529920316805,232.58261810647144L510.05957178351184,231.572989198934L515.4199824256234,227.0748023018939L516.1869728195662,222.53908098506008L513.8860016377378,218.47341777325067L507.7500784861952,220.00761961446693L506.21609769830945,222.02221752320918L505.44910730436663,221.0099539342068L503.9236486319693,223.0331466456825L501.6226774501408,221.52750019399485L502.38966784408376,222.53908098506008L500.0801745467669,223.5493303218807L500.0801745467669,219.48904347651614L492.4102706073387,212.86308817996064L495.48675429859827,211.33714921684162L495.48675429859827,209.79668865944905Z" box-shadow="inset 0 0 2px lightgray"></path></g><g class="sf2368qing_hai"><path fill="rgb(146,200,255)" stroke="rgb(255,255,255)" d="M424.91511594037047,273.4360708723817L426.4490967282562,273.4360708723817L427.2160871221989,271.525364852706L434.88599106162724,273.8999022312868L436.42849396500105,273.4360708723817L436.42849396500105,268.6670856411241L434.1190006676844,267.7227802214699L433.3520102737415,265.80969012892473L438.7294651468296,262.4511887501452L436.42849396500105,258.5961627478963L431.81802948585596,254.23754183706L432.5850198797988,248.87847035955593L430.2925708134585,249.85548864319583L428.75859002557286,246.90998412762326L447.92482775865517,241.01921790233376L447.92482775865517,240.0313439689058L454.83626341962884,239.04223725251876L454.83626341962884,241.50173144774823L459.42968366779746,242.0058644407476L460.9721865711714,244.46714605945687L464.7986164253972,243.96456777800358L467.09958760722566,248.3786480905277L470.94306169242793,247.90026687004064L474.76949154665385,249.3562714995951L477.0789848439706,248.3786480905277L481.67240509213934,251.30797543032173L483.20638588002487,249.85548864319583L485.5158791773416,250.33271222947616L485.5158791773416,247.41071905328323L489.3423090315674,245.92938132870353L488.5838407531129,239.04223725251876L498.5461937588814,243.48354460533903L500.0801745467669,241.01921790233376L502.38966784408376,242.0058644407476L503.9236486319693,240.51445824565968L506.9830880922524,242.0058644407476L513.1275333592831,248.3786480905277L516.1869728195662,249.3562714995951L514.6529920316805,247.41071905328323L515.4199824256234,246.90998412762326L518.4964661168829,249.3562714995951L520.7974372987113,249.85548864319583L524.6238671529372,254.23754183706L527.7003508441968,253.74101532339148L529.992799910537,256.6511025727558L531.5267806984226,255.68222479300636L533.0607614863083,258.5961627478963L536.9042355715106,261.489117049718L536.1372451775678,263.89220703558453L537.6712259654533,265.3200860699969L536.9042355715106,266.2777385867034L539.1966846378508,270.57368137587486L540.7306654257364,271.525364852706L539.9636750317936,273.4360708723817L539.9636750317936,275.33196565496405L537.6712259654533,276.74062072315536L539.1966846378508,278.6396819387588L536.1372451775678,278.6396819387588L534.6032643896822,280.5240966092553L535.3702547836249,282.8634142470598L531.5267806984226,286.62026278025013L531.5267806984226,288.95364655191185L533.8362739957394,291.27052909337306L533.0607614863083,292.6742513536768L529.2343316320823,294.5184221685275L523.0898863650515,291.7455664126127L521.555905577166,292.6742513536768L525.39085754688,299.1481074504418L527.7003508441968,298.6769913858251L528.4673412381396,300.5190893901929L529.992799910537,300.5190893901929L529.2343316320823,302.82665208181817L529.992799910537,303.73377794425636L528.4673412381396,304.6501801800638L524.6238671529372,303.73377794425636L525.39085754688,309.22863971928103L520.7974372987113,309.67410425240394L520.7974372987113,311.0496434799492L517.72947572294,308.76269746029305L515.4199824256234,309.67410425240394L515.4199824256234,307.3938997022438L513.1275333592831,306.03322691043843L512.3605429653403,308.76269746029305L507.7500784861952,306.94733354842026L507.7500784861952,305.56566523168163L504.6906390259121,304.2022761482948L500.8471649407097,294.9917271622151L495.48675429859827,293.5916632180664L493.95277351071263,294.5184221685275L494.71976390465545,296.3690579116264L491.6432802133959,296.84138476286023L492.4102706073387,300.0691455047712L494.71976390465545,301.9084137623571L491.6432802133959,307.3938997022438L492.4102706073387,309.22863971928103L494.71976390465545,311.0496434799492L491.6432802133959,310.58461557349546L490.8762898194532,315.57659462566784L486.28286957128444,316.48137966252335L487.04985996522726,319.6413273942191L483.9733762739677,319.20056972434577L481.67240509213934,316.94349044241864L480.9054146981964,320.54224229772757L479.37995602579906,318.29838275894423L477.8459752379134,319.6413273942191L474.76949154665385,318.29838275894423L474.00250115271103,316.48137966252335L474.00250115271103,314.67093916669995L473.2355107587683,314.22785633469255L472.4685203648254,312.8570017210614L470.94306169242793,313.3208978471476L472.4685203648254,311.9588090320231L467.8665780011685,310.139588338444L463.27315775299985,311.9588090320231L460.2051961772286,310.58461557349546L457.8957028799118,311.49423531979187L453.3022826317432,308.76269746029305L447.16635948020064,308.76269746029305L446.3993690862578,307.8605329758351L444.09839790442936,307.8605329758351L439.49645554077233,304.6501801800638L433.3520102737415,304.6501801800638L427.99159963163004,300.989246253251L424.14812554642765,295.44421900987277L425.6821063343134,291.7455664126127L424.91511594037047,288.47710328803134L425.6821063343134,286.62026278025013L423.38113515248494,286.1424494977604L422.6226668740303,282.40440415689005L422.6226668740303,280.98410525365324L424.91511594037047,280.5240966092553L424.91511594037047,276.74062072315536L422.6226668740303,275.33196565496405L421.8556764800875,273.8999022312868Z" box-shadow="inset 0 0 2px lightgray"></path></g><g class="sf2368si_chuan"><path fill="rgb(146,200,255)" stroke="rgb(255,255,255)" d="M529.992799910537,300.5190893901929L530.7597903044798,300.0691455047712L531.5267806984226,301.438733381295L530.7597903044798,305.11820910230637L536.1372451775678,301.438733381295L533.8362739957394,296.3690579116264L539.9636750317936,292.199711673737L541.4976558196793,293.5916632180664L542.2731683291104,297.7647839835512L550.7100626624814,299.5985100833954L551.4770530564242,301.9084137623571L553.0110338443098,302.82665208181817L552.2440434503669,303.73377794425636L553.0110338443098,305.56566523168163L552.2440434503669,307.3938997022438L553.0110338443098,308.76269746029305L559.9139473897952,310.139588338444L561.4479281776809,308.76269746029305L561.4479281776809,307.3938997022438L562.2149185716237,306.94733354842026L562.9733868500783,308.76269746029305L567.5838513292234,307.3938997022438L567.5838513292234,308.76269746029305L569.8848225110519,309.67410425240394L576.0207456625944,309.22863971928103L576.7877360565373,311.49423531979187L577.5547264504801,311.9588090320231L579.0801851228774,311.0496434799492L584.4576399959655,314.67093916669995L586.758611177794,313.76440947407036L589.0510602441342,314.22785633469255L587.5170794562484,314.67093916669995L586.758611177794,317.3852980737451L589.0510602441342,319.6413273942191L585.9916207838511,321.4423074758928L583.6906496020227,328.1760105950449L579.8471755168204,328.1760105950449L579.0801851228774,329.0689925966101L579.8471755168204,330.3970346620741L576.0207456625944,336.6267947738363L573.7112523652777,336.6267947738363L572.177271577392,333.5118768254349L569.1178321171091,334.85367024831504L565.2743580319067,332.18803523573695L563.740377244021,333.96592184881854L562.9733868500783,335.74062672498627L564.5073676379639,337.95457615825507L560.680937783738,341.476986246221L562.2149185716237,343.6881709062528L564.5073676379639,344.1181098276695L565.2743580319067,347.1908285804435L569.1178321171091,348.067067552676L569.8848225110519,351.5743470132125L566.8168609352806,349.3897574399167L563.740377244021,352.44690656396034L566.0413484258496,355.49518161472577L568.3508417231662,355.49518161472577L569.8848225110519,358.52508566853953L563.740377244021,360.26773197551785L562.9733868500783,358.96823620507394L560.680937783738,359.3919481358071L559.9139473897952,356.7892517704671L558.3799666019096,355.9202739636803L556.8374636985357,357.65752127424184L553.0110338443098,357.23312225420386L552.2440434503669,356.36450686864146L553.0110338443098,355.49518161472577L553.0110338443098,354.1898557053503L551.4770530564242,352.44690656396034L553.0110338443098,350.6913525065761L548.4005693651646,350.2641422932376L547.6335789712218,353.74470956256795L544.5741395109388,355.49518161472577L544.5741395109388,358.96823620507394L539.9636750317936,363.725431677702L540.7306654257364,372.7408940468616L537.6712259654533,374.46120451000127L536.9042355715106,372.7408940468616L533.0607614863083,375.3156350016892L530.7597903044798,375.73312275131923L528.4673412381396,374.02424672390646L529.2343316320823,372.7408940468616L526.9333604502539,370.6082429887282L526.9333604502539,368.4619648107255L526.9333604502539,369.31143207988555L524.6238671529372,366.30195679085944L524.6238671529372,365.0192408423358L520.7974372987113,358.1010309703948L517.72947572294,358.52508566853953L516.953963213509,359.3919481358071L514.6529920316805,355.49518161472577L516.1869728195662,353.3187417113647L511.5935525713975,348.5146367172967L509.292581389569,351.5743470132125L509.292581389569,355.0602517843945L507.7500784861952,353.74470956256795L506.9830880922524,344.1181098276695L505.44910730436663,329.0689925966101L502.38966784408376,324.5858975224787L504.6906390259121,322.34152664404996L500.8471649407097,317.8369334770469L498.5461937588814,312.8570017210614L494.71976390465545,311.0496434799492L492.4102706073387,309.22863971928103L491.6432802133959,307.3938997022438L494.71976390465545,301.9084137623571L492.4102706073387,300.0691455047712L491.6432802133959,296.84138476286023L494.71976390465545,296.3690579116264L493.95277351071263,294.5184221685275L495.48675429859827,293.5916632180664L500.8471649407097,294.9917271622151L504.6906390259121,304.2022761482948L507.7500784861952,305.56566523168163L507.7500784861952,306.94733354842026L512.3605429653403,308.76269746029305L513.1275333592831,306.03322691043843L515.4199824256234,307.3938997022438L515.4199824256234,309.67410425240394L517.72947572294,308.76269746029305L520.7974372987113,311.0496434799492L520.7974372987113,309.67410425240394L525.39085754688,309.22863971928103L524.6238671529372,303.73377794425636L528.4673412381396,304.6501801800638L529.992799910537,303.73377794425636L529.2343316320823,302.82665208181817Z" box-shadow="inset 0 0 2px lightgray"></path></g><g class="sf2368hei_long_jiang"><path fill="rgb(146,200,255)" stroke="rgb(255,255,255)" d="M701.7986481537287,58.92055077721204L720.9734080022993,55.70001052044154L731.7197956329869,62.763362836058036L733.2537764208726,60.83068088812263L737.8471966690413,62.763362836058036L738.6227091784724,65.29804464988217L742.4491390326982,67.21700613844666L741.6906707542437,69.74782555735692L743.2161294266409,71.00942765777961L744.7501102145268,74.15243233072135L744.7501102145268,75.4052679321336L746.2840910024124,76.01686348444935L745.5171006084695,79.13514584971836L749.3605746936719,87.17184620331761L748.593584299729,88.3993334270483L750.1275650876146,87.79952250440601L749.3605746936719,90.84727928668212L752.420014153955,95.72885655380549L753.1870045478979,102.36302345982352L755.4964978452144,102.94945701229756L754.7295074512715,107.7410489932455L757.0304786331001,111.28881261348084L765.467372966471,111.89357612202377L768.5268124267541,114.83058707748938L771.6032961180135,113.65211303557373L778.4976875480108,121.27486478135143L782.3411616332132,121.27486478135143L780.8071808453276,124.18350090569669L783.8666203056105,128.81107742272968L782.3411616332132,131.12568473026607L785.4006010934961,136.83328481979999L798.4479599060126,136.27609519567704L799.2149502999553,133.4196194935488L803.0413801541811,131.12568473026607L806.8848542393835,131.12568473026607L813.020777390926,127.65718441087319L820.6906813303542,127.09233370347812L817.6141976390945,129.38727905651353L816.0802168512091,132.83413548265577L817.6141976390945,136.83328481979999L816.0802168512091,139.68800705799038L814.5547581788117,139.68800705799038L813.020777390926,141.94055408388527L813.020777390926,143.6470145487993L809.9442936996666,151.48446269870766L810.7112840936093,154.8338241985586L806.8848542393835,160.34772980403994L806.1178638454405,163.64254069378399L804.5838830575551,164.2023343532157L803.0413801541811,169.11178317840222L801.5073993662954,170.19813944321822L793.0705050329245,166.37641873069168L790.0110655726414,170.19813944321822L785.4006010934961,172.3538318874484L787.7100943908131,182.03965188781183L786.934581881382,186.28577457576557L787.7100943908131,189.4746280288972L783.8666203056105,189.99105613248952L780.8071808453276,187.34635989006927L779.273200057442,183.09464642464133L776.1967163661825,184.7037933133451L775.4297259722396,182.5732694744675L774.671257693785,184.1599249491498L770.06079321464,185.2236319577023L769.293802820697,187.87607076239522L766.2343633604139,188.41715332332035L763.1664017846426,180.97122645917977L762.3908892752115,177.20720153926175L759.3229276994405,178.82958917752296L759.3229276994405,181.4937663623495L756.2634882391574,181.4937663623495L754.7295074512715,175.5930874910431L750.8860333660693,175.5930874910431L750.1275650876146,173.43522621450649L750.8860333660693,170.7406916978768L749.3605746936719,169.11178317840222L746.2840910024124,167.4669968902835L741.6906707542437,168.55588790202916L739.3896995724153,166.93403661819497L738.6227091784724,164.2023343532157L733.2537764208726,165.84263079087054L731.7197956329869,164.2023343532157L727.1093311538418,165.28414561272768L724.049891693559,161.4477280907052L723.282901299616,155.37610338859764L717.1469781480735,155.37610338859764L715.6129973601878,150.93911679892068L720.2064176083563,149.82228873715627L720.2064176083563,147.02224798457888L720.2064176083563,147.58317135331538L719.4394272144136,145.89902085751044L718.6724368204709,145.89902085751044L718.6724368204709,147.02224798457888L715.6129973601878,149.25076414942055L710.2355424870998,140.8215059007536L726.3423407598989,125.93546788014851L727.8763215477848,131.12568473026607L730.9528052390442,117.76759106899158L734.77923509327,117.19427022629088L734.0207668148155,108.322668747791L735.546225487213,104.16063383845648L739.3896995724153,98.7528123276478L739.3896995724153,95.72885655380549L741.6906707542437,92.08130940818012L735.546225487213,83.48891512967305L733.2537764208726,83.48891512967305L731.7197956329869,87.17184620331761L728.6433119417275,87.17184620331761L727.1093311538418,88.3993334270483L720.9734080022993,87.17184620331761L717.905446426528,89.0258087671092L714.8460069662449,87.79952250440601L711.7695232749854,77.26601754310855L712.5365136689284,74.76523985861547L707.9430934207594,71.00942765777961L706.409112632874,74.15243233072135L704.0996193355572,74.15243233072135L703.3326289416143,72.2545328543207L699.5061990873885,70.36492458721443L704.8666097295002,63.387365143019906Z" box-shadow="inset 0 0 2px lightgray"></path></g><g class="sf2368gan_su"><path fill="rgb(146,200,255)" stroke="rgb(255,255,255)" d="M483.20638588002487,198.40183299463985L490.10929942551036,197.357197468167L495.48675429859827,209.79668865944905L495.48675429859827,211.33714921684162L492.4102706073387,212.86308817996064L500.0801745467669,219.48904347651614L500.0801745467669,223.5493303218807L502.38966784408376,222.53908098506008L501.6226774501408,221.52750019399485L503.9236486319693,223.0331466456825L505.44910730436663,221.0099539342068L506.21609769830945,222.02221752320918L507.7500784861952,220.00761961446693L513.8860016377378,218.47341777325067L516.1869728195662,222.53908098506008L515.4199824256234,227.0748023018939L510.05957178351184,231.572989198934L514.6529920316805,232.58261810647144L519.2634565108258,236.56404144252605L521.555905577166,236.56404144252605L523.0898863650515,242.0058644407476L525.39085754688,241.01921790233376L526.166370056311,243.96456777800358L529.992799910537,244.94757763247196L532.2937710923654,242.49872911349053L530.7597903044798,240.0313439689058L536.1372451775678,238.53621600342439L540.7306654257364,240.0313439689058L543.8071491169959,237.54523613474402L549.9345501530503,236.56404144252605L551.4770530564242,241.50173144774823L544.5741395109388,248.3786480905277L545.3411299048817,250.8313268829757L543.8071491169959,252.2820662281418L544.5741395109388,254.23754183706L552.2440434503669,258.5961627478963L554.5364925167073,258.5961627478963L554.5364925167073,260.996959329673L556.8374636985357,260.996959329673L560.680937783738,265.3200860699969L559.9139473897952,266.766781916777L562.2149185716237,272.9614356483486L560.680937783738,274.38454633847255L561.4479281776809,276.74062072315536L564.5073676379639,277.2236541145889L565.2743580319067,279.1006978401877L566.8168609352806,280.04291607462204L566.0413484258496,280.5240966092553L566.8168609352806,280.5240966092553L567.5838513292234,280.98410525365324L569.1178321171091,280.5240966092553L569.8848225110519,282.40440415689005L571.4102811834493,281.46476154834386L570.6432907895064,277.6854312158769L572.9442619713349,277.6854312158769L575.2537552686516,276.2783333957549L574.4782427592206,272.9614356483486L571.4102811834493,271.525364852706L571.4102811834493,269.1547377609544L570.6432907895064,268.2003707997787L572.177271577392,265.80969012892473L572.177271577392,262.4511887501452L578.3217168444229,262.4511887501452L578.3217168444229,264.3613328664327L590.5850410320197,270.57368137587486L589.8180506380769,274.38454633847255L589.0510602441342,275.79476542745846L589.8180506380769,279.1006978401877L589.0510602441342,281.9242698325068L582.1481466986487,281.9242698325068L582.1481466986487,283.8119608766609L582.9236592080798,284.74906698091155L581.3811563047059,285.68516616225025L577.5547264504801,286.1424494977604L575.2537552686516,284.2702277170458L572.177271577392,284.2702277170458L571.4102811834493,287.5543611757807L569.8848225110519,289.40922915898483L572.9442619713349,292.199711673737L571.4102811834493,292.6742513536768L572.177271577392,294.0654604784315L570.6432907895064,296.3690579116264L571.4102811834493,300.5190893901929L566.8168609352806,299.5985100833954L564.5073676379639,301.9084137623571L566.8168609352806,304.2022761482948L566.0413484258496,306.03322691043843L562.2149185716237,306.94733354842026L561.4479281776809,307.3938997022438L561.4479281776809,308.76269746029305L559.9139473897952,310.139588338444L553.0110338443098,308.76269746029305L552.2440434503669,307.3938997022438L553.0110338443098,305.56566523168163L552.2440434503669,303.73377794425636L553.0110338443098,302.82665208181817L551.4770530564242,301.9084137623571L550.7100626624814,299.5985100833954L542.2731683291104,297.7647839835512L541.4976558196793,293.5916632180664L539.9636750317936,292.199711673737L533.8362739957394,296.3690579116264L536.1372451775678,301.438733381295L530.7597903044798,305.11820910230637L531.5267806984226,301.438733381295L530.7597903044798,300.0691455047712L529.992799910537,300.5190893901929L528.4673412381396,300.5190893901929L527.7003508441968,298.6769913858251L525.39085754688,299.1481074504418L521.555905577166,292.6742513536768L523.0898863650515,291.7455664126127L529.2343316320823,294.5184221685275L533.0607614863083,292.6742513536768L533.8362739957394,291.27052909337306L531.5267806984226,288.95364655191185L531.5267806984226,286.62026278025013L535.3702547836249,282.8634142470598L534.6032643896822,280.5240966092553L536.1372451775678,278.6396819387588L539.1966846378508,278.6396819387588L537.6712259654533,276.74062072315536L539.9636750317936,275.33196565496405L539.9636750317936,273.4360708723817L540.7306654257364,271.525364852706L539.1966846378508,270.57368137587486L536.9042355715106,266.2777385867034L537.6712259654533,265.3200860699969L536.1372451775678,263.89220703558453L536.9042355715106,261.489117049718L533.0607614863083,258.5961627478963L531.5267806984226,255.68222479300636L529.992799910537,256.6511025727558L527.7003508441968,253.74101532339148L524.6238671529372,254.23754183706L520.7974372987113,249.85548864319583L518.4964661168829,249.3562714995951L515.4199824256234,246.90998412762326L514.6529920316805,247.41071905328323L516.1869728195662,249.3562714995951L513.1275333592831,248.3786480905277L506.9830880922524,242.0058644407476L503.9236486319693,240.51445824565968L502.38966784408376,242.0058644407476L500.0801745467669,241.01921790233376L498.5461937588814,243.48354460533903L488.5838407531129,239.04223725251876L489.3423090315674,245.92938132870353L485.5158791773416,247.41071905328323L485.5158791773416,250.33271222947616L483.20638588002487,249.85548864319583L481.67240509213934,251.30797543032173L477.0789848439706,248.3786480905277L474.76949154665385,249.3562714995951L470.94306169242793,247.90026687004064L467.09958760722566,248.3786480905277L464.7986164253972,243.96456777800358L460.9721865711714,244.46714605945687L459.42968366779746,242.0058644407476L454.83626341962884,241.50173144774823L454.83626341962884,239.04223725251876L447.92482775865517,240.0313439689058L447.92482775865517,237.54523613474402L450.2257989404836,234.0669549469746L454.0692730256859,222.53908098506008L460.9721865711714,222.02221752320918L462.5061673590569,217.4564367663055L467.09958760722566,212.86308817996064L472.4685203648254,209.27106871105246L473.2355107587683,211.33714921684162L479.37995602579906,207.73781163841886L481.67240509213934,204.12107844720094L480.1469464197419,203.08449274266036L479.37995602579906,201.00696819889782Z" box-shadow="inset 0 0 2px lightgray"></path></g><g class="sf2368yun_nan"><path fill="rgb(146,200,255)" stroke="rgb(255,255,255)" d="M498.5461937588814,355.49518161472577L499.3131841528242,352.87322738438576L500.0801745467669,355.49518161472577L503.15665823802647,354.6154721720127L503.9236486319693,353.3187417113647L502.38966784408376,351.5743470132125L503.15665823802647,347.6387768230212L503.9236486319693,346.7621744428748L503.9236486319693,348.067067552676L505.44910730436663,348.5146367172967L505.44910730436663,345.44587143241324L506.9830880922524,344.1181098276695L507.7500784861952,353.74470956256795L509.292581389569,355.0602517843945L509.292581389569,351.5743470132125L511.5935525713975,348.5146367172967L516.1869728195662,353.3187417113647L514.6529920316805,355.49518161472577L516.953963213509,359.3919481358071L517.72947572294,358.52508566853953L520.7974372987113,358.1010309703948L524.6238671529372,365.0192408423358L524.6238671529372,366.30195679085944L526.9333604502539,369.31143207988555L526.9333604502539,368.4619648107255L526.9333604502539,370.6082429887282L529.2343316320823,372.7408940468616L528.4673412381396,374.02424672390646L530.7597903044798,375.73312275131923L533.0607614863083,375.3156350016892L536.9042355715106,372.7408940468616L537.6712259654533,374.46120451000127L540.7306654257364,372.7408940468616L539.9636750317936,363.725431677702L544.5741395109388,358.96823620507394L544.5741395109388,355.49518161472577L547.6335789712218,353.74470956256795L548.4005693651646,350.2641422932376L553.0110338443098,350.6913525065761L551.4770530564242,352.44690656396034L553.0110338443098,354.1898557053503L553.0110338443098,355.49518161472577L552.2440434503669,356.36450686864146L553.0110338443098,357.23312225420386L556.8374636985357,357.65752127424184L558.3799666019096,355.9202739636803L559.9139473897952,356.7892517704671L560.680937783738,359.3919481358071L559.9139473897952,362.86203909872984L554.5364925167073,363.2842276694405L553.0110338443098,361.99796037578915L550.7100626624814,364.14728593543964L548.4005693651646,362.42048478479785L546.0995981833362,366.30195679085944L546.866588577279,366.74194723037806L546.866588577279,368.8820073819335L548.4005693651646,371.0274770382215L553.0110338443098,369.7502282221617L555.30348291065,372.3223001520506L552.2440434503669,379.1526708200713L556.8374636985357,383.8251193054152L554.5364925167073,385.51957102922825L555.30348291065,386.36588504801597L553.7780242382527,388.4790334664812L555.30348291065,392.2733278089827L556.0704733045928,391.00989036748285L558.3799666019096,391.4218223855925L559.9139473897952,394.796267900148L562.2149185716237,395.2069204900653L562.9733868500783,394.36680208188045L566.8168609352806,394.36680208188045L568.3508417231662,397.30470851649704L568.3508417231662,399.8173739089079L563.740377244021,401.0718134728537L562.9733868500783,403.1690452162468L560.680937783738,401.49896618165553L556.8374636985357,403.5769520892262L556.0704733045928,406.493391931146L552.2440434503669,408.1569622073324L550.7100626624814,406.9187304496479L549.1675597591075,409.4124674252124L546.0995981833362,407.3254447847538L545.3411299048817,408.9879468416759L543.8071491169959,406.9187304496479L541.4976558196793,410.2334305777149L536.1372451775678,407.3254447847538L534.6032643896822,410.6575467362077L530.7597903044798,411.063094754057L529.992799910537,409.82762562689254L528.4673412381396,412.7208549222642L530.7597903044798,418.0943621422781L529.992799910537,422.624592658815L528.4673412381396,421.80202406180234L525.39085754688,422.2225091027134L524.6238671529372,416.8654043714389L520.0304469047686,419.752608286473L515.4199824256234,419.3313667219803L513.8860016377378,413.97200850254103L507.7500784861952,413.1441712509933L509.292581389569,408.9879468416759L508.5170688801379,407.75050930784937L510.05957178351184,404.41089987405155L504.6906390259121,403.1690452162468L503.15665823802647,396.0464642637985L504.6906390259121,394.36680208188045L498.5461937588814,394.796267900148L494.71976390465545,396.894754869415L493.1857831167698,396.4660215250676L494.71976390465545,394.36680208188045L493.95277351071263,391.4218223855925L493.1857831167698,391.4218223855925L493.1857831167698,388.4790334664812L494.71976390465545,387.6342243133493L495.48675429859827,383.3917004942257L498.5461937588814,382.1187827172987L498.5461937588814,380.0036071766001L500.0801745467669,380.41939258743776L501.6226774501408,377.8750866204511L503.15665823802647,377.4394367641631L502.38966784408376,375.73312275131923L503.15665823802647,374.8790064756767L503.9236486319693,370.6082429887282L503.15665823802647,361.5560541588012L501.6226774501408,360.26773197551785L500.0801745467669,361.5560541588012Z" box-shadow="inset 0 0 2px lightgray"></path></g><g class="sf2368guang_xi"><path fill="rgb(146,200,255)" stroke="rgb(255,255,255)" d="M553.7780242382527,388.4790334664812L555.30348291065,389.7357551806979L559.9139473897952,386.36588504801597L566.8168609352806,389.32324564346516L568.3508417231662,388.0473168849594L568.3508417231662,386.36588504801597L574.4782427592206,384.23954404851156L576.0207456625944,383.3917004942257L575.2537552686516,381.2693983513554L577.5547264504801,380.0036071766001L579.8471755168204,383.8251193054152L582.1481466986487,383.8251193054152L582.9236592080798,384.6726500706681L585.2246303899083,383.8251193054152L585.9916207838511,381.7036055918322L587.5170794562484,380.8539177946768L589.8180506380769,382.97697585747864L589.8180506380769,380.41939258743776L593.6615247232793,380.8539177946768L592.8945343293365,378.71750520447733L595.9539737896195,379.1526708200713L597.4879545775052,376.1694235389747L599.7974478748218,377.4394367641631L601.3314286627076,374.46120451000127L603.6238777290478,376.5865985257444L606.691839304819,373.1783485872528L612.0607720624188,373.1783485872528L612.8277624563616,374.02424672390646L612.8277624563616,377.4394367641631L614.3617432442472,377.8750866204511L610.5353133900213,385.93340020211144L611.3023037839641,386.36588504801597L613.5947528503044,384.6726500706681L615.12873363819,389.32324564346516L616.6712365415639,388.0473168849594L619.730676001847,388.4790334664812L618.2052173294496,389.32324564346516L619.730676001847,392.2733278089827L618.2052173294496,393.52610627248157L618.2052173294496,395.63609226113374L617.4382269355068,397.30470851649704L615.904246147621,397.30470851649704L615.904246147621,398.57098144256133L613.5947528503044,400.65380627744844L614.3617432442472,404.8369293205044L612.8277624563616,406.9187304496479L608.2343422081929,409.4124674252124L608.2343422081929,411.89223533255426L607.46735181425,413.1441712509933L604.3908681229905,413.1441712509933L604.3908681229905,415.61695819559156L601.3314286627076,416.03935647651815L600.5644382687648,417.69094680737857L599.7974478748218,418.0943621422781L599.7974478748218,420.1554136205708L598.254944971448,419.752608286473L594.4285151172221,420.57640171742173L595.1869833956767,425.09850291370276L593.6615247232793,424.277395314907L593.6615247232793,418.9283183203047L590.5850410320197,418.9283183203047L589.8180506380769,417.69094680737857L586.758611177794,419.3313667219803L582.9236592080798,418.0943621422781L579.0801851228774,418.0943621422781L576.0207456625944,416.4432654264916L576.0207456625944,415.21280055711907L572.9442619713349,414.3857340406146L572.177271577392,410.6575467362077L573.7112523652777,407.3254447847538L572.9442619713349,406.0864148656108L566.0413484258496,405.66080099608484L562.9733868500783,404.41089987405155L562.9733868500783,403.1690452162468L563.740377244021,401.0718134728537L568.3508417231662,399.8173739089079L568.3508417231662,397.30470851649704L566.8168609352806,394.36680208188045L562.9733868500783,394.36680208188045L562.2149185716237,395.2069204900653L559.9139473897952,394.796267900148L558.3799666019096,391.4218223855925L556.0704733045928,391.00989036748285L555.30348291065,392.2733278089827Z" box-shadow="inset 0 0 2px lightgray"></path></g><g class="sf2368hu_nan"><path fill="rgb(146,200,255)" stroke="rgb(255,255,255)" d="M595.1869833956767,352.0010223931468L595.1869833956767,345.44587143241324L597.4879545775052,340.6048872576874L599.0219353653907,340.6048872576874L599.7974478748218,339.27078710821706L605.9248489108762,340.1538447242712L607.46735181425,339.27078710821706L605.9248489108762,336.6267947738363L609.0013326021358,335.287392139138L617.4382269355068,337.5023445865288L621.2646567897326,341.476986246221L623.5656279715611,340.6048872576874L625.1081308749349,341.03613115587996L627.4091020567635,338.8387883429758L628.167570335218,339.27078710821706L627.4091020567635,341.9274401732406L628.167570335218,342.3581223065252L632.7780348143632,338.3869548768281L632.7780348143632,339.72222423042626L634.3120156022488,341.03613115587996L633.5450252083059,343.6881709062528L634.3120156022488,345.8750737354647L635.8459963901345,346.31384542380437L638.1384454564746,348.5146367172967L637.3714550625318,351.1280913330468L638.9054358504175,353.3187417113647L634.3120156022488,357.23312225420386L633.5450252083059,360.69093265803406L633.5450252083059,362.86203909872984L635.0790059961917,363.725431677702L634.3120156022488,365.440596479251L635.8459963901345,367.1626433299847L635.8459963901345,370.1697845661954L637.3714550625318,370.6082429887282L636.604464668589,374.46120451000127L638.9054358504175,374.8790064756767L636.604464668589,375.73312275131923L635.8459963901345,381.7036055918322L633.5450252083059,382.97697585747864L629.7015511231036,380.8539177946768L626.6421116628206,382.55267347626216L628.167570335218,383.8251193054152L628.167570335218,386.36588504801597L626.6421116628206,386.77941853548276L624.3411404809922,384.6726500706681L621.2646567897326,384.23954404851156L620.4976663957898,387.2115949849401L619.730676001847,388.4790334664812L616.6712365415639,388.0473168849594L615.12873363819,389.32324564346516L613.5947528503044,384.6726500706681L611.3023037839641,386.36588504801597L610.5353133900213,385.93340020211144L614.3617432442472,377.8750866204511L612.8277624563616,377.4394367641631L612.8277624563616,374.02424672390646L612.0607720624188,373.1783485872528L606.691839304819,373.1783485872528L603.6238777290478,376.5865985257444L601.3314286627076,374.46120451000127L599.7974478748218,377.4394367641631L597.4879545775052,376.1694235389747L596.7209641835624,373.59662461214697L595.1869833956767,373.1783485872528L596.7209641835624,370.6082429887282L595.9539737896195,369.31143207988555L597.4879545775052,368.4619648107255L597.4879545775052,366.30195679085944L595.9539737896195,365.0192408423358L592.1275439353938,366.30195679085944L591.3605535414508,365.440596479251L596.7209641835624,360.69093265803406L595.9539737896195,357.65752127424184L595.9539737896195,354.1898557053503Z" box-shadow="inset 0 0 2px lightgray"></path></g><g class="sf2368shan_xi_1"><path fill="rgb(146,200,255)" stroke="rgb(255,255,255)" d="M562.2149185716237,306.94733354842026L566.0413484258496,306.03322691043843L566.8168609352806,304.2022761482948L564.5073676379639,301.9084137623571L566.8168609352806,299.5985100833954L571.4102811834493,300.5190893901929L570.6432907895064,296.3690579116264L572.177271577392,294.0654604784315L571.4102811834493,292.6742513536768L572.9442619713349,292.199711673737L569.8848225110519,289.40922915898483L571.4102811834493,287.5543611757807L572.177271577392,284.2702277170458L575.2537552686516,284.2702277170458L577.5547264504801,286.1424494977604L581.3811563047059,285.68516616225025L582.9236592080798,284.74906698091155L582.1481466986487,283.8119608766609L582.1481466986487,281.9242698325068L589.0510602441342,281.9242698325068L589.8180506380769,279.1006978401877L589.0510602441342,275.79476542745846L589.8180506380769,274.38454633847255L590.5850410320197,270.57368137587486L578.3217168444229,264.3613328664327L578.3217168444229,262.4511887501452L578.3217168444229,256.6511025727558L581.3811563047059,253.74101532339148L585.9916207838511,256.6511025727558L590.5850410320197,255.68222479300636L591.3605535414508,252.2820662281418L592.1275439353938,252.76867357123558L593.6615247232793,252.2820662281418L592.8945343293365,248.87847035955593L601.3314286627076,239.52595489795675L600.5644382687648,238.53621600342439L603.6238777290478,238.05189233921965L602.8654094505931,236.05642756818713L607.46735181425,238.05189233921965L611.3023037839641,234.57585556124752L611.3023037839641,237.06030378885987L612.0607720624188,238.53621600342439L609.7683229960786,244.46714605945687L609.0013326021358,246.90998412762326L605.9248489108762,250.33271222947616L605.9248489108762,252.76867357123558L609.0013326021358,256.1775723093942L605.1578585169334,263.4014741816892L605.9248489108762,272.9614356483486L606.691839304819,278.1679323451929L603.6238777290478,286.1424494977604L603.6238777290478,288.47710328803134L605.1578585169334,289.40922915898483L605.9248489108762,293.12792164414634L607.46735181425,294.0654604784315L607.46735181425,297.2929430258812L610.5353133900213,300.5190893901929L610.5353133900213,303.28542405641997L608.2343422081929,304.6501801800638L606.691839304819,303.28542405641997L604.3908681229905,304.2022761482948L598.254944971448,303.28542405641997L596.7209641835624,304.6501801800638L599.7974478748218,305.56566523168163L599.7974478748218,306.94733354842026L602.8654094505931,308.76269746029305L602.8654094505931,310.139588338444L599.0219353653907,310.139588338444L597.4879545775052,311.9588090320231L598.254944971448,319.20056972434577L595.1869833956767,319.20056972434577L593.6615247232793,316.94349044241864L589.0510602441342,314.22785633469255L586.758611177794,313.76440947407036L584.4576399959655,314.67093916669995L579.0801851228774,311.0496434799492L577.5547264504801,311.9588090320231L576.7877360565373,311.49423531979187L576.0207456625944,309.22863971928103L569.8848225110519,309.67410425240394L567.5838513292234,308.76269746029305L567.5838513292234,307.3938997022438L562.9733868500783,308.76269746029305Z" box-shadow="inset 0 0 2px lightgray"></path></g><g class="sf2368guang_dong"><path fill="rgb(146,200,255)" stroke="rgb(255,255,255)" d="M599.7974478748218,420.1554136205708L599.7974478748218,418.0943621422781L600.5644382687648,417.69094680737857L601.3314286627076,416.03935647651815L604.3908681229905,415.61695819559156L604.3908681229905,413.1441712509933L607.46735181425,413.1441712509933L608.2343422081929,411.89223533255426L608.2343422081929,409.4124674252124L612.8277624563616,406.9187304496479L614.3617432442472,404.8369293205044L613.5947528503044,400.65380627744844L615.904246147621,398.57098144256133L615.904246147621,397.30470851649704L617.4382269355068,397.30470851649704L618.2052173294496,395.63609226113374L618.2052173294496,393.52610627248157L619.730676001847,392.2733278089827L618.2052173294496,389.32324564346516L619.730676001847,388.4790334664812L620.4976663957898,387.2115949849401L621.2646567897326,384.23954404851156L624.3411404809922,384.6726500706681L626.6421116628206,386.77941853548276L628.167570335218,386.36588504801597L628.167570335218,383.8251193054152L626.6421116628206,382.55267347626216L629.7015511231036,380.8539177946768L633.5450252083059,382.97697585747864L635.8459963901345,381.7036055918322L636.604464668589,383.3917004942257L641.9819195416771,382.1187827172987L643.5159003295627,383.3917004942257L642.7489099356197,384.6726500706681L640.4479387537914,386.36588504801597L638.1384454564746,388.8918338293553L640.4479387537914,390.57908376151227L648.8848330871623,388.0473168849594L652.7112629413882,390.1668636711138L651.9527946629337,388.0473168849594L653.478253335331,386.77941853548276L656.5547370265906,388.0473168849594L657.3217274205333,387.2115949849401L658.8557082084192,389.7357551806979L660.3896889963047,389.32324564346516L662.682138062645,393.95586755312104L662.682138062645,396.4660215250676L664.2161188505306,399.8173739089079L665.7586217539043,402.74245688565424L661.9151476687022,401.49896618165553L659.6226986023618,404.0032602930041L658.8557082084192,406.493391931146L653.478253335331,407.75050930784937L651.1858042689908,407.3254447847538L650.4188138750482,408.5817540867334L645.808349395903,408.1569622073324L641.9819195416771,411.063094754057L639.6724262443603,409.4124674252124L636.604464668589,409.82762562689254L635.0790059961917,412.7208549222642L639.6724262443603,413.1441712509933L640.4479387537914,414.3857340406146L637.3714550625318,415.21280055711907L636.604464668589,416.4432654264916L632.7780348143632,414.3857340406146L628.9345607291608,416.03935647651815L627.4091020567635,418.5159863427517L622.7986375776183,419.752608286473L621.2646567897326,418.9283183203047L615.12873363819,419.3313667219803L612.8277624563616,420.57640171742173L608.2343422081929,420.57640171742173L607.46735181425,421.80202406180234L608.2343422081929,424.67888584712716L605.9248489108762,425.09850291370276L607.46735181425,430.8238657783926L606.691839304819,430.8238657783926L605.1578585169334,432.04970384102546L602.0984190566503,432.04970384102546L600.5644382687648,432.04970384102546L600.5644382687648,430.42410871471304L598.254944971448,424.67888584712716L599.7974478748218,420.1554136205708ZM633.1530078958463,412.98774401357764L633.2552732817053,413.3465791169499L632.7780348143632,413.5029640580264L632.6757694285042,412.6196070540773L632.9655213551048,412.6196070540773Z" box-shadow="inset 0 0 2px lightgray"></path></g><g class="sf2368ji_lin"><path fill="rgb(146,200,255)" stroke="rgb(255,255,255)" d="M717.1469781480735,155.37610338859764L723.282901299616,155.37610338859764L724.049891693559,161.4477280907052L727.1093311538418,165.28414561272768L731.7197956329869,164.2023343532157L733.2537764208726,165.84263079087054L738.6227091784724,164.2023343532157L739.3896995724153,166.93403661819497L741.6906707542437,168.55588790202916L746.2840910024124,167.4669968902835L749.3605746936719,169.11178317840222L750.8860333660693,170.7406916978768L750.1275650876146,173.43522621450649L750.8860333660693,175.5930874910431L754.7295074512715,175.5930874910431L756.2634882391574,181.4937663623495L759.3229276994405,181.4937663623495L759.3229276994405,178.82958917752296L762.3908892752115,177.20720153926175L763.1664017846426,180.97122645917977L766.2343633604139,188.41715332332035L769.293802820697,187.87607076239522L770.06079321464,185.2236319577023L774.671257693785,184.1599249491498L775.4297259722396,182.5732694744675L776.1967163661825,184.7037933133451L779.273200057442,183.09464642464133L780.8071808453276,187.34635989006927L783.8666203056105,189.99105613248952L787.7100943908131,189.4746280288972L787.7100943908131,191.04624613933265L786.167591487439,195.77581732756403L780.0401904513847,198.40183299463985L781.5741712392705,198.91200521203524L781.5741712392705,201.51534553546327L778.4976875480108,197.86809329993673L778.4976875480108,196.31107685765704L777.7306971540679,195.2634644659767L775.4297259722396,194.72743987216296L773.9042672998421,201.00696819889782L770.8277836085826,201.51534553546327L766.9928316388684,206.70624625985386L759.3229276994405,206.70624625985386L761.6238988812688,211.83854454227054L760.089918093383,214.408654491628L750.8860333660693,212.36237407735138L751.653023760012,211.83854454227054L749.3605746936719,209.27106871105246L747.0596035118435,210.81260590762838L745.5171006084695,213.88624301349427L742.4491390326982,218.99268430648033L738.6227091784724,220.00761961446693L737.8471966690413,219.48904347651614L739.3896995724153,215.93974090162243L735.546225487213,210.81260590762838L735.546225487213,207.21074492546194L736.3132158811557,205.67325450770022L735.546225487213,205.14472805536104L731.7197956329869,197.357197468167L731.7197956329869,194.21435356026404L730.1858148451015,194.21435356026404L727.8763215477848,196.82269956503535L726.3423407598989,192.09991026127318L722.5159109056733,189.4746280288972L720.9734080022993,190.5305665387105L717.905446426528,188.93433332467185L719.4394272144136,186.28577457576557L716.3799877541305,177.20720153926175L709.4770742086453,179.90120798342537L707.1761030268169,172.3538318874484L708.7100838147023,167.4669968902835L705.6421222389313,162.00928059747758L704.0996193355572,161.4477280907052L704.8666097295002,158.15477952006694L708.7100838147023,160.9101678750436L710.2355424870998,159.80932055690863L712.5365136689284,162.00928059747758L713.3035040628711,158.15477952006694Z" box-shadow="inset 0 0 2px lightgray"></path></g><g class="sf2368he_bei"><path fill="rgb(146,200,255)" stroke="rgb(255,255,255)" d="M641.2149291477342,235.57057717852734L639.6724262443603,231.572989198934L636.604464668589,230.08389953716852L641.2149291477342,226.05798593088917L639.6724262443603,225.56585808876508L638.9054358504175,223.0331466456825L637.3714550625318,221.52750019399485L635.8459963901345,216.95875097121865L636.604464668589,215.93974090162243L635.8459963901345,213.38620711008735L638.9054358504175,211.83854454227054L638.1384454564746,209.27106871105246L641.2149291477342,205.14472805536104L644.2743686080172,205.67325450770022L645.04135900196,211.33714921684162L647.3423301837886,211.83854454227054L653.478253335331,207.73781163841886L654.245243729274,209.27106871105246L656.5547370265906,206.70624625985386L661.1481572747592,206.70624625985386L661.9151476687022,202.04645816169898L665.7586217539043,201.51534553546327L667.2926025417901,199.9660163145731L669.5850516081302,199.433407562294L671.8860227899588,202.04645816169898L671.1190323960161,204.12107844720094L672.6530131839015,206.17845130749197L674.1955160872753,205.67325450770022L674.1955160872753,209.27106871105246L672.6530131839015,209.79668865944905L674.9625064812183,214.9080152039952L682.6324104206465,214.9080152039952L678.7889363354441,220.50331986716526L682.6324104206465,224.04274718801054L684.9333816024748,223.5493303218807L686.4588402748723,228.5696648064324L687.9928210627581,230.57316831371452L684.9333816024748,233.5798710573577L684.1663912085321,236.56404144252605L679.555926729387,240.51445824565968L675.7294968751612,242.0058644407476L672.6530131839015,241.01921790233376L671.8860227899588,239.04223725251876L671.8860227899588,238.53621600342439L670.3520420020732,236.56404144252605L671.1190323960161,234.57585556124752L668.8180612141875,234.57585556124752L667.2926025417901,232.58261810647144L667.2926025417901,230.08389953716852L668.8180612141875,230.08389953716852L668.8180612141875,229.0821628385105L666.5256121478474,227.5659708145157L664.9916313599617,224.04274718801054L666.5256121478474,222.53908098506008L662.682138062645,222.02221752320918L659.6226986023618,217.97639676069832L657.3217274205333,219.48904347651614L658.0887178144762,221.0099539342068L655.7792245171596,221.0099539342068L655.0122341232167,223.0331466456825L651.9527946629337,223.5493303218807L653.478253335331,227.0748023018939L648.8848330871623,230.57316831371452L649.6518234811052,234.0669549469746L651.9527946629337,235.57057717852734L655.7792245171596,234.57585556124752L657.3217274205333,236.05642756818713L658.8557082084192,234.57585556124752L661.1481572747592,234.57585556124752L661.9151476687022,240.0313439689058L660.3896889963047,242.0058644407476L660.3896889963047,243.48354460533903L664.9916313599617,246.43072802275935L668.0595929357328,245.44953877420573L671.1190323960161,248.87847035955593L666.5256121478474,254.23754183706L661.1481572747592,254.23754183706L658.0887178144762,258.10227460864354L656.5547370265906,257.14586443122465L656.5547370265906,259.56160894205607L654.245243729274,259.56160894205607L651.9527946629337,264.3613328664327L648.1093205777312,268.6670856411241L649.6518234811052,272.4759782843125L648.1093205777312,273.4360708723817L646.5753397898457,272.011367337373L645.04135900196,273.4360708723817L644.2743686080172,272.9614356483486L634.3120156022488,270.57368137587486L632.0110444204204,267.23429518921046L634.3120156022488,264.85150009627057L634.3120156022488,261.9596028360594L638.1384454564746,256.1775723093942L636.604464668589,255.68222479300636L635.0790059961917,250.8313268829757L632.7780348143632,249.3562714995951L632.7780348143632,246.43072802275935L635.0790059961917,243.48354460533903L635.0790059961917,242.0058644407476L635.8459963901345,241.01921790233376L639.6724262443603,240.51445824565968ZM664.9916313599617,229.0821628385105L664.2161188505306,232.07241939783552L664.2161188505306,234.0669549469746L661.9151476687022,233.5798710573577L661.9151476687022,232.07241939783552L661.1481572747592,230.08389953716852Z" box-shadow="inset 0 0 2px lightgray"></path></g><g class="sf2368hu_bei"><path fill="rgb(146,200,255)" stroke="rgb(255,255,255)" d="M603.6238777290478,325.0441037192334L602.8654094505931,322.7908201314659L599.0219353653907,321.00238154007525L599.7974478748218,319.6413273942191L598.254944971448,319.20056972434577L597.4879545775052,311.9588090320231L599.0219353653907,310.139588338444L602.8654094505931,310.139588338444L602.8654094505931,308.76269746029305L599.7974478748218,306.94733354842026L599.7974478748218,305.56566523168163L596.7209641835624,304.6501801800638L598.254944971448,303.28542405641997L604.3908681229905,304.2022761482948L606.691839304819,303.28542405641997L608.2343422081929,304.6501801800638L610.5353133900213,303.28542405641997L615.12873363819,310.139588338444L622.0316471836754,312.8570017210614L629.7015511231036,311.9588090320231L632.0110444204204,313.3208978471476L634.3120156022488,311.9588090320231L635.0790059961917,317.8369334770469L636.604464668589,318.7395590354939L638.1384454564746,317.8369334770469L641.2149291477342,318.7395590354939L641.9819195416771,321.00238154007525L643.5159003295627,321.9020138498487L646.5753397898457,320.54224229772757L647.3423301837886,322.34152664404996L648.8848330871623,322.34152664404996L650.4188138750482,324.5858975224787L654.245243729274,326.3776424215535L651.9527946629337,329.96115963463546L655.0122341232167,334.85367024831504L655.0122341232167,338.3869548768281L653.478253335331,339.72222423042626L649.6518234811052,338.8387883429758L644.2743686080172,342.80818600447407L638.9054358504175,343.23849570463403L635.8459963901345,346.31384542380437L634.3120156022488,345.8750737354647L633.5450252083059,343.6881709062528L634.3120156022488,341.03613115587996L632.7780348143632,339.72222423042626L632.7780348143632,338.3869548768281L628.167570335218,342.3581223065252L627.4091020567635,341.9274401732406L628.167570335218,339.27078710821706L627.4091020567635,338.8387883429758L625.1081308749349,341.03613115587996L623.5656279715611,340.6048872576874L621.2646567897326,341.476986246221L617.4382269355068,337.5023445865288L609.0013326021358,335.287392139138L605.9248489108762,336.6267947738363L607.46735181425,339.27078710821706L605.9248489108762,340.1538447242712L599.7974478748218,339.27078710821706L599.0219353653907,340.6048872576874L597.4879545775052,340.6048872576874L595.1869833956767,345.44587143241324L593.6615247232793,343.23849570463403L592.8945343293365,343.6881709062528L589.8180506380769,338.3869548768281L588.2840698501914,338.8387883429758L589.0510602441342,334.40003133939416L588.2840698501914,332.62292508242456L589.8180506380769,330.8525152908218L591.3605535414508,331.7430631332948L593.6615247232793,330.3970346620741L594.4285151172221,331.2879949421549L595.1869833956767,330.3970346620741L596.7209641835624,331.2879949421549L600.5644382687648,327.71928169361047L602.0984190566503,328.6126816196659Z" box-shadow="inset 0 0 2px lightgray"></path></g><g class="sf2368gui_zhou"><path fill="rgb(146,200,255)" stroke="rgb(255,255,255)" d="M550.7100626624814,364.14728593543964L553.0110338443098,361.99796037578915L554.5364925167073,363.2842276694405L559.9139473897952,362.86203909872984L560.680937783738,359.3919481358071L562.9733868500783,358.96823620507394L563.740377244021,360.26773197551785L569.8848225110519,358.52508566853953L568.3508417231662,355.49518161472577L566.0413484258496,355.49518161472577L563.740377244021,352.44690656396034L566.8168609352806,349.3897574399167L569.8848225110519,351.5743470132125L571.4102811834493,351.1280913330468L570.6432907895064,348.942565660807L571.4102811834493,348.942565660807L572.177271577392,350.2641422932376L572.177271577392,351.5743470132125L572.9442619713349,352.0010223931468L574.4782427592206,348.942565660807L579.0801851228774,348.067067552676L579.0801851228774,344.996968050429L580.6141659107632,344.5673982593897L582.9236592080798,345.44587143241324L582.9236592080798,346.7621744428748L586.758611177794,345.8750737354647L587.5170794562484,350.2641422932376L589.0510602441342,350.2641422932376L589.0510602441342,352.87322738438576L590.5850410320197,352.0010223931468L590.5850410320197,354.6154721720127L593.6615247232793,354.6154721720127L595.1869833956767,352.0010223931468L595.9539737896195,354.1898557053503L595.9539737896195,357.65752127424184L596.7209641835624,360.69093265803406L591.3605535414508,365.440596479251L592.1275439353938,366.30195679085944L595.9539737896195,365.0192408423358L597.4879545775052,366.30195679085944L597.4879545775052,368.4619648107255L595.9539737896195,369.31143207988555L596.7209641835624,370.6082429887282L595.1869833956767,373.1783485872528L596.7209641835624,373.59662461214697L597.4879545775052,376.1694235389747L595.9539737896195,379.1526708200713L592.8945343293365,378.71750520447733L593.6615247232793,380.8539177946768L589.8180506380769,380.41939258743776L589.8180506380769,382.97697585747864L587.5170794562484,380.8539177946768L585.9916207838511,381.7036055918322L585.2246303899083,383.8251193054152L582.9236592080798,384.6726500706681L582.1481466986487,383.8251193054152L579.8471755168204,383.8251193054152L577.5547264504801,380.0036071766001L575.2537552686516,381.2693983513554L576.0207456625944,383.3917004942257L574.4782427592206,384.23954404851156L568.3508417231662,386.36588504801597L568.3508417231662,388.0473168849594L566.8168609352806,389.32324564346516L559.9139473897952,386.36588504801597L555.30348291065,389.7357551806979L553.7780242382527,388.4790334664812L555.30348291065,386.36588504801597L554.5364925167073,385.51957102922825L556.8374636985357,383.8251193054152L552.2440434503669,379.1526708200713L555.30348291065,372.3223001520506L553.0110338443098,369.7502282221617L548.4005693651646,371.0274770382215L546.866588577279,368.8820073819335L546.866588577279,366.74194723037806L546.0995981833362,366.30195679085944L548.4005693651646,362.42048478479785Z" box-shadow="inset 0 0 2px lightgray"></path></g><g class="sf2368shan_dong"><path fill="rgb(146,200,255)" stroke="rgb(255,255,255)" d="M649.6518234811052,272.4759782843125L648.1093205777312,268.6670856411241L651.9527946629337,264.3613328664327L654.245243729274,259.56160894205607L656.5547370265906,259.56160894205607L656.5547370265906,257.14586443122465L658.0887178144762,258.10227460864354L661.1481572747592,254.23754183706L666.5256121478474,254.23754183706L671.1190323960161,248.87847035955593L672.6530131839015,250.8313268829757L679.555926729387,250.8313268829757L683.3994008145894,256.1775723093942L680.3229171233297,257.6188357185078L680.3229171233297,259.56160894205607L683.3994008145894,261.9596028360594L686.4588402748723,261.9596028360594L687.9928210627581,259.06830012091115L693.3617538203578,254.23754183706L694.1287442143007,250.8313268829757L697.1967057900717,247.41071905328323L697.9722182995029,254.23754183706L699.5061990873885,256.1775723093942L705.6421222389313,258.10227460864354L707.9430934207594,256.6511025727558L708.7100838147023,258.10227460864354L711.7695232749854,258.10227460864354L712.5365136689284,259.56160894205607L711.7695232749854,264.3613328664327L710.2355424870998,265.80969012892473L704.8666097295002,264.85150009627057L704.0996193355572,266.766781916777L698.7392086934458,267.7227802214699L698.7392086934458,269.6209231976801L701.0401798752744,271.525364852706L695.6627250021861,272.4759782843125L697.1967057900717,275.79476542745846L694.8957346082434,273.8999022312868L686.4588402748723,280.04291607462204L688.7598114567008,285.20684100201316L683.3994008145894,284.74906698091155L682.6324104206465,283.8119608766609L679.555926729387,284.74906698091155L678.0219459415014,288.010669504605L675.7294968751612,288.47710328803134L674.9625064812183,291.27052909337306L673.4285256933326,291.27052909337306L672.6530131839015,288.95364655191185L671.1190323960161,288.47710328803134L668.0595929357328,290.8159067951179L665.7586217539043,289.40922915898483L664.9916313599617,290.8159067951179L661.1481572747592,285.68516616225025L658.0887178144762,286.1424494977604L657.3217274205333,288.95364655191185L655.7792245171596,289.40922915898483L650.4188138750482,289.40922915898483L648.8848330871623,286.62026278025013L643.5159003295627,284.2702277170458L645.808349395903,280.98410525365324L647.3423301837886,280.5240966092553L649.6518234811052,277.2236541145889L655.0122341232167,273.4360708723817L648.1093205777312,276.2783333957549Z" box-shadow="inset 0 0 2px lightgray"></path></g><g class="sf2368jiang_xi"><path fill="rgb(146,200,255)" stroke="rgb(255,255,255)" d="M638.9054358504175,353.3187417113647L637.3714550625318,351.1280913330468L638.1384454564746,348.5146367172967L635.8459963901345,346.31384542380437L638.9054358504175,343.23849570463403L644.2743686080172,342.80818600447407L649.6518234811052,338.8387883429758L653.478253335331,339.72222423042626L655.0122341232167,338.3869548768281L656.5547370265906,338.8387883429758L660.3896889963047,336.17396272635716L661.9151476687022,337.5023445865288L660.3896889963047,339.27078710821706L660.3896889963047,340.6048872576874L664.2161188505306,339.72222423042626L663.4491284565877,338.3869548768281L664.2161188505306,337.5023445865288L667.2926025417901,340.6048872576874L671.8860227899588,341.03613115587996L673.4285256933326,342.80818600447407L671.8860227899588,344.996968050429L671.8860227899588,346.31384542380437L674.9625064812183,348.942565660807L675.7294968751612,353.3187417113647L675.7294968751612,353.74470956256795L674.1955160872753,355.9202739636803L669.5850516081302,358.52508566853953L667.2926025417901,356.7892517704671L662.682138062645,360.26773197551785L664.2161188505306,363.725431677702L663.4491284565877,365.440596479251L658.8557082084192,368.4619648107255L659.6226986023618,371.88451252533486L657.3217274205333,374.02424672390646L658.0887178144762,375.3156350016892L655.7792245171596,377.4394367641631L654.245243729274,383.3917004942257L652.7112629413882,383.8251193054152L653.478253335331,386.77941853548276L651.9527946629337,388.0473168849594L652.7112629413882,390.1668636711138L648.8848330871623,388.0473168849594L640.4479387537914,390.57908376151227L638.1384454564746,388.8918338293553L640.4479387537914,386.36588504801597L642.7489099356197,384.6726500706681L643.5159003295627,383.3917004942257L641.9819195416771,382.1187827172987L636.604464668589,383.3917004942257L635.8459963901345,381.7036055918322L636.604464668589,375.73312275131923L638.9054358504175,374.8790064756767L636.604464668589,374.46120451000127L637.3714550625318,370.6082429887282L635.8459963901345,370.1697845661954L635.8459963901345,367.1626433299847L634.3120156022488,365.440596479251L635.0790059961917,363.725431677702L633.5450252083059,362.86203909872984L633.5450252083059,360.69093265803406L634.3120156022488,357.23312225420386Z" box-shadow="inset 0 0 2px lightgray"></path></g><g class="sf2368he_nan"><path fill="rgb(146,200,255)" stroke="rgb(255,255,255)" d="M605.1578585169334,289.40922915898483L609.0013326021358,288.95364655191185L612.0607720624188,287.0770575547003L615.12873363819,286.62026278025013L617.4382269355068,284.2702277170458L619.730676001847,284.2702277170458L619.730676001847,281.9242698325068L625.8751212688778,282.8634142470598L628.9345607291608,281.46476154834386L633.5450252083059,277.6854312158769L634.3120156022488,270.57368137587486L644.2743686080172,272.9614356483486L645.04135900196,273.4360708723817L646.5753397898457,272.011367337373L648.1093205777312,273.4360708723817L649.6518234811052,272.4759782843125L648.1093205777312,276.2783333957549L655.0122341232167,273.4360708723817L649.6518234811052,277.2236541145889L647.3423301837886,280.5240966092553L645.808349395903,280.98410525365324L643.5159003295627,284.2702277170458L648.8848330871623,286.62026278025013L650.4188138750482,289.40922915898483L655.7792245171596,289.40922915898483L655.7792245171596,291.27052909337306L658.8557082084192,292.6742513536768L659.6226986023618,296.3690579116264L655.7792245171596,298.6769913858251L654.245243729274,295.917033870158L651.1858042689908,294.9917271622151L650.4188138750482,296.3690579116264L650.4188138750482,299.1481074504418L648.8848330871623,300.5190893901929L648.1093205777312,304.2022761482948L644.2743686080172,304.6501801800638L644.2743686080172,306.03322691043843L646.5753397898457,307.3938997022438L647.3423301837886,310.139588338444L650.4188138750482,311.9588090320231L652.7112629413882,311.0496434799492L653.478253335331,318.7395590354939L649.6518234811052,319.6413273942191L648.8848330871623,322.34152664404996L647.3423301837886,322.34152664404996L646.5753397898457,320.54224229772757L643.5159003295627,321.9020138498487L641.9819195416771,321.00238154007525L641.2149291477342,318.7395590354939L638.1384454564746,317.8369334770469L636.604464668589,318.7395590354939L635.0790059961917,317.8369334770469L634.3120156022488,311.9588090320231L632.0110444204204,313.3208978471476L629.7015511231036,311.9588090320231L622.0316471836754,312.8570017210614L615.12873363819,310.139588338444L610.5353133900213,303.28542405641997L610.5353133900213,300.5190893901929L607.46735181425,297.2929430258812L607.46735181425,294.0654604784315L605.9248489108762,293.12792164414634Z" box-shadow="inset 0 0 2px lightgray"></path></g><g class="sf2368liao_ning"><path fill="rgb(146,200,255)" stroke="rgb(255,255,255)" d="M682.6324104206465,214.9080152039952L684.1663912085321,211.33714921684162L682.6324104206465,210.31052632019163L683.3994008145894,203.5914485940446L684.9333816024748,202.5541231633278L687.9928210627581,204.63882999445087L690.3023143600747,210.31052632019163L693.3617538203578,205.67325450770022L701.7986481537287,201.00696819889782L704.0996193355572,201.51534553546327L706.409112632874,198.40183299463985L709.4770742086453,198.91200521203524L709.4770742086453,196.82269956503535L713.3035040628711,198.40183299463985L716.3799877541305,197.357197468167L717.905446426528,195.2634644659767L720.2064176083563,194.72743987216296L720.9734080022993,190.5305665387105L722.5159109056733,189.4746280288972L726.3423407598989,192.09991026127318L727.8763215477848,196.82269956503535L730.1858148451015,194.21435356026404L731.7197956329869,194.21435356026404L731.7197956329869,197.357197468167L735.546225487213,205.14472805536104L736.3132158811557,205.67325450770022L735.546225487213,207.21074492546194L735.546225487213,210.81260590762838L739.3896995724153,215.93974090162243L737.8471966690413,219.48904347651614L738.6227091784724,220.00761961446693L728.6433119417275,227.5659708145157L724.8168820875014,233.5798710573577L718.6724368204709,233.5798710573577L716.3799877541305,236.56404144252605L716.3799877541305,241.01921790233376L707.1761030268169,241.01921790233376L702.5656385476716,244.46714605945687L698.7392086934458,244.94757763247196L697.1967057900717,241.50173144774823L701.0401798752744,239.04223725251876L699.5061990873885,235.06232134661036L707.1761030268169,225.56585808876508L706.409112632874,222.02221752320918L704.0996193355572,220.50331986716526L699.5061990873885,220.50331986716526L694.1287442143007,227.5659708145157L687.9928210627581,230.57316831371452L686.4588402748723,228.5696648064324L684.9333816024748,223.5493303218807L682.6324104206465,224.04274718801054L678.7889363354441,220.50331986716526Z" box-shadow="inset 0 0 2px lightgray"></path></g><g class="sf2368shan_xi_2"><path fill="rgb(146,200,255)" stroke="rgb(255,255,255)" d="M609.7683229960786,244.46714605945687L612.0607720624188,238.53621600342439L611.3023037839641,237.06030378885987L613.5947528503044,236.56404144252605L614.3617432442472,234.0669549469746L618.9722077233923,234.57585556124752L622.0316471836754,227.0748023018939L625.8751212688778,228.0791323310006L629.7015511231036,225.56585808876508L632.7780348143632,226.05798593088917L635.0790059961917,224.04274718801054L637.3714550625318,224.04274718801054L637.3714550625318,221.52750019399485L638.9054358504175,223.0331466456825L639.6724262443603,225.56585808876508L641.2149291477342,226.05798593088917L636.604464668589,230.08389953716852L639.6724262443603,231.572989198934L641.2149291477342,235.57057717852734L639.6724262443603,240.51445824565968L635.8459963901345,241.01921790233376L635.0790059961917,242.0058644407476L635.0790059961917,243.48354460533903L632.7780348143632,246.43072802275935L632.7780348143632,249.3562714995951L635.0790059961917,250.8313268829757L636.604464668589,255.68222479300636L638.1384454564746,256.1775723093942L634.3120156022488,261.9596028360594L634.3120156022488,264.85150009627057L632.0110444204204,267.23429518921046L634.3120156022488,270.57368137587486L633.5450252083059,277.6854312158769L628.9345607291608,281.46476154834386L625.8751212688778,282.8634142470598L619.730676001847,281.9242698325068L619.730676001847,284.2702277170458L617.4382269355068,284.2702277170458L615.12873363819,286.62026278025013L612.0607720624188,287.0770575547003L609.0013326021358,288.95364655191185L605.1578585169334,289.40922915898483L603.6238777290478,288.47710328803134L603.6238777290478,286.1424494977604L606.691839304819,278.1679323451929L605.9248489108762,272.9614356483486L605.1578585169334,263.4014741816892L609.0013326021358,256.1775723093942L605.9248489108762,252.76867357123558L605.9248489108762,250.33271222947616L609.0013326021358,246.90998412762326Z" box-shadow="inset 0 0 2px lightgray"></path></g><g class="sf2368an_hui"><path fill="rgb(146,200,255)" stroke="rgb(255,255,255)" d="M659.6226986023618,296.3690579116264L658.8557082084192,292.6742513536768L655.7792245171596,291.27052909337306L655.7792245171596,289.40922915898483L657.3217274205333,288.95364655191185L661.9151476687022,291.27052909337306L664.2161188505306,294.9917271622151L668.0595929357328,295.44421900987277L669.5850516081302,298.6769913858251L672.6530131839015,298.22612800692986L671.1190323960161,303.73377794425636L671.8860227899588,304.6501801800638L673.4285256933326,303.73377794425636L674.1955160872753,308.31679371856023L678.0219459415014,308.76269746029305L679.555926729387,306.4802370831345L681.8654200267038,307.8605329758351L681.8654200267038,311.49423531979187L676.4964872691039,310.58461557349546L677.2549555475587,314.22785633469255L675.7294968751612,314.67093916669995L674.9625064812183,316.94349044241864L679.555926729387,321.00238154007525L678.0219459415014,322.7908201314659L678.7889363354441,324.1474096896953L683.3994008145894,323.6887772192976L684.1663912085321,325.0441037192334L685.6918498809296,325.48218470620435L685.6918498809296,325.93996649718105L684.1663912085321,329.96115963463546L682.6324104206465,330.3970346620741L683.3994008145894,332.62292508242456L679.555926729387,333.5118768254349L679.555926729387,337.0695842264557L678.0219459415014,339.72222423042626L673.4285256933326,342.80818600447407L671.8860227899588,341.03613115587996L667.2926025417901,340.6048872576874L664.2161188505306,337.5023445865288L663.4491284565877,338.3869548768281L664.2161188505306,339.72222423042626L660.3896889963047,340.6048872576874L660.3896889963047,339.27078710821706L661.9151476687022,337.5023445865288L660.3896889963047,336.17396272635716L656.5547370265906,338.8387883429758L655.0122341232167,338.3869548768281L655.0122341232167,334.85367024831504L651.9527946629337,329.96115963463546L654.245243729274,326.3776424215535L650.4188138750482,324.5858975224787L648.8848330871623,322.34152664404996L649.6518234811052,319.6413273942191L653.478253335331,318.7395590354939L652.7112629413882,311.0496434799492L650.4188138750482,311.9588090320231L647.3423301837886,310.139588338444L646.5753397898457,307.3938997022438L644.2743686080172,306.03322691043843L644.2743686080172,304.6501801800638L648.1093205777312,304.2022761482948L648.8848330871623,300.5190893901929L650.4188138750482,299.1481074504418L650.4188138750482,296.3690579116264L651.1858042689908,294.9917271622151L654.245243729274,295.917033870158L655.7792245171596,298.6769913858251Z" box-shadow="inset 0 0 2px lightgray"></path></g><g class="sf2368fu_jian"><path fill="rgb(146,200,255)" stroke="rgb(255,255,255)" d="M675.7294968751612,353.74470956256795L678.7889363354441,354.1898557053503L678.0219459415014,356.36450686864146L679.555926729387,361.99796037578915L682.6324104206465,362.42048478479785L685.6918498809296,359.83474113504775L687.2258306688152,363.725431677702L691.0693047540174,362.42048478479785L692.6032855419032,365.0192408423358L695.6627250021861,366.30195679085944L694.8957346082434,367.60229058517734L691.0693047540174,368.02265917199793L691.0693047540174,369.31143207988555L692.6032855419032,369.7502282221617L693.3617538203578,372.7408940468616L691.0693047540174,373.59662461214697L692.6032855419032,374.8790064756767L689.535323966132,374.46120451000127L688.7598114567008,377.0225730918024L687.2258306688152,377.0225730918024L688.7598114567008,382.1187827172987L687.2258306688152,383.3917004942257L684.9333816024748,384.6726500706681L684.1663912085321,385.93340020211144L682.6324104206465,385.08677632729007L679.555926729387,387.6342243133493L677.2549555475587,390.57908376151227L675.7294968751612,390.57908376151227L675.7294968751612,391.4218223855925L673.4285256933326,392.2733278089827L673.4285256933326,393.95586755312104L670.3520420020732,395.63609226113374L669.5850516081302,397.73315133287986L667.2926025417901,399.40824793194986L664.2161188505306,399.8173739089079L662.682138062645,396.4660215250676L662.682138062645,393.95586755312104L660.3896889963047,389.32324564346516L658.8557082084192,389.7357551806979L657.3217274205333,387.2115949849401L656.5547370265906,388.0473168849594L653.478253335331,386.77941853548276L652.7112629413882,383.8251193054152L654.245243729274,383.3917004942257L655.7792245171596,377.4394367641631L658.0887178144762,375.3156350016892L657.3217274205333,374.02424672390646L659.6226986023618,371.88451252533486L658.8557082084192,368.4619648107255L663.4491284565877,365.440596479251L664.2161188505306,363.725431677702L662.682138062645,360.26773197551785L667.2926025417901,356.7892517704671L669.5850516081302,358.52508566853953L674.1955160872753,355.9202739636803Z" box-shadow="inset 0 0 2px lightgray"></path></g><g class="sf2368zhe_jiang"><path fill="rgb(146,200,255)" stroke="rgb(255,255,255)" d="M673.4285256933326,342.80818600447407L678.0219459415014,339.72222423042626L679.555926729387,337.0695842264557L679.555926729387,333.5118768254349L683.3994008145894,332.62292508242456L682.6324104206465,330.3970346620741L684.1663912085321,329.96115963463546L685.6918498809296,325.93996649718105L685.6918498809296,325.48218470620435L688.7598114567008,325.0441037192334L693.3617538203578,328.6126816196659L697.1967057900717,326.3776424215535L700.2731894813314,329.96115963463546L706.409112632874,328.6126816196659L712.5365136689284,327.71928169361047L714.0790165723022,329.50526474626236L714.8460069662449,335.287392139138L711.7695232749854,335.74062672498627L711.7695232749854,337.5023445865288L707.9430934207594,341.476986246221L709.4770742086453,348.067067552676L706.409112632874,348.067067552676L706.409112632874,352.44690656396034L704.0996193355572,353.3187417113647L704.0996193355572,354.6154721720127L701.7986481537287,354.6154721720127L702.5656385476716,356.36450686864146L700.2731894813314,357.23312225420386L698.7392086934458,362.42048478479785L694.8957346082434,363.2842276694405L694.8957346082434,365.0192408423358L697.1967057900717,366.30195679085944L695.6627250021861,366.30195679085944L692.6032855419032,365.0192408423358L691.0693047540174,362.42048478479785L687.2258306688152,363.725431677702L685.6918498809296,359.83474113504775L682.6324104206465,362.42048478479785L679.555926729387,361.99796037578915L678.0219459415014,356.36450686864146L678.7889363354441,354.1898557053503L675.7294968751612,353.74470956256795L675.7294968751612,353.3187417113647L674.9625064812183,348.942565660807L671.8860227899588,346.31384542380437L671.8860227899588,344.996968050429Z" box-shadow="inset 0 0 2px lightgray"></path></g><g class="sf2368jiang_su"><path fill="rgb(146,200,255)" stroke="rgb(255,255,255)" d="M657.3217274205333,288.95364655191185L658.0887178144762,286.1424494977604L661.1481572747592,285.68516616225025L664.9916313599617,290.8159067951179L665.7586217539043,289.40922915898483L668.0595929357328,290.8159067951179L671.1190323960161,288.47710328803134L672.6530131839015,288.95364655191185L673.4285256933326,291.27052909337306L674.9625064812183,291.27052909337306L675.7294968751612,288.47710328803134L678.0219459415014,288.010669504605L679.555926729387,284.74906698091155L682.6324104206465,283.8119608766609L683.3994008145894,284.74906698091155L683.3994008145894,286.62026278025013L686.4588402748723,289.40922915898483L691.8362951479603,291.7455664126127L697.1967057900717,305.56566523168163L697.9722182995029,309.67410425240394L701.0401798752744,311.49423531979187L701.7986481537287,314.67093916669995L705.6421222389313,316.48137966252335L706.409112632874,319.6413273942191L706.409112632874,320.54224229772757L699.5061990873885,317.8369334770469L698.7392086934458,319.20056972434577L701.0401798752744,321.4423074758928L699.5061990873885,321.9020138498487L697.1967057900717,326.3776424215535L693.3617538203578,328.6126816196659L688.7598114567008,325.0441037192334L685.6918498809296,325.48218470620435L684.1663912085321,325.0441037192334L683.3994008145894,323.6887772192976L678.7889363354441,324.1474096896953L678.0219459415014,322.7908201314659L679.555926729387,321.00238154007525L674.9625064812183,316.94349044241864L675.7294968751612,314.67093916669995L677.2549555475587,314.22785633469255L676.4964872691039,310.58461557349546L681.8654200267038,311.49423531979187L681.8654200267038,307.8605329758351L679.555926729387,306.4802370831345L678.0219459415014,308.76269746029305L674.1955160872753,308.31679371856023L673.4285256933326,303.73377794425636L671.8860227899588,304.6501801800638L671.1190323960161,303.73377794425636L672.6530131839015,298.22612800692986L669.5850516081302,298.6769913858251L668.0595929357328,295.44421900987277L664.2161188505306,294.9917271622151L661.9151476687022,291.27052909337306Z" box-shadow="inset 0 0 2px lightgray"></path></g><g class="sf2368chong_qing"><path fill="rgb(146,200,255)" stroke="rgb(255,255,255)" d="M589.0510602441342,319.6413273942191L586.758611177794,317.3852980737451L587.5170794562484,314.67093916669995L589.0510602441342,314.22785633469255L593.6615247232793,316.94349044241864L595.1869833956767,319.20056972434577L598.254944971448,319.20056972434577L599.7974478748218,319.6413273942191L599.0219353653907,321.00238154007525L602.8654094505931,322.7908201314659L603.6238777290478,325.0441037192334L602.0984190566503,328.6126816196659L600.5644382687648,327.71928169361047L596.7209641835624,331.2879949421549L595.1869833956767,330.3970346620741L594.4285151172221,331.2879949421549L593.6615247232793,330.3970346620741L591.3605535414508,331.7430631332948L589.8180506380769,330.8525152908218L588.2840698501914,332.62292508242456L589.0510602441342,334.40003133939416L588.2840698501914,338.8387883429758L589.8180506380769,338.3869548768281L592.8945343293365,343.6881709062528L593.6615247232793,343.23849570463403L595.1869833956767,345.44587143241324L595.1869833956767,352.0010223931468L593.6615247232793,354.6154721720127L590.5850410320197,354.6154721720127L590.5850410320197,352.0010223931468L589.0510602441342,352.87322738438576L589.0510602441342,350.2641422932376L587.5170794562484,350.2641422932376L586.758611177794,345.8750737354647L582.9236592080798,346.7621744428748L582.9236592080798,345.44587143241324L580.6141659107632,344.5673982593897L579.0801851228774,344.996968050429L579.0801851228774,348.067067552676L574.4782427592206,348.942565660807L572.9442619713349,352.0010223931468L572.177271577392,351.5743470132125L572.177271577392,350.2641422932376L571.4102811834493,348.942565660807L570.6432907895064,348.942565660807L571.4102811834493,351.1280913330468L569.8848225110519,351.5743470132125L569.1178321171091,348.067067552676L565.2743580319067,347.1908285804435L564.5073676379639,344.1181098276695L562.2149185716237,343.6881709062528L560.680937783738,341.476986246221L564.5073676379639,337.95457615825507L562.9733868500783,335.74062672498627L563.740377244021,333.96592184881854L565.2743580319067,332.18803523573695L569.1178321171091,334.85367024831504L572.177271577392,333.5118768254349L573.7112523652777,336.6267947738363L576.0207456625944,336.6267947738363L579.8471755168204,330.3970346620741L579.0801851228774,329.0689925966101L579.8471755168204,328.1760105950449L583.6906496020227,328.1760105950449L585.9916207838511,321.4423074758928Z" box-shadow="inset 0 0 2px lightgray"></path></g><g class="sf2368ning_xia"><path fill="rgb(146,200,255)" stroke="rgb(255,255,255)" d="M552.2440434503669,258.5961627478963L565.2743580319067,254.71219738303523L566.0413484258496,244.46714605945687L569.8848225110519,238.05189233921965L573.7112523652777,237.06030378885987L575.2537552686516,241.50173144774823L571.4102811834493,248.87847035955593L573.7112523652777,250.33271222947616L578.3217168444229,251.30797543032173L581.3811563047059,253.74101532339148L578.3217168444229,256.6511025727558L578.3217168444229,262.4511887501452L572.177271577392,262.4511887501452L572.177271577392,265.80969012892473L570.6432907895064,268.2003707997787L571.4102811834493,269.1547377609544L571.4102811834493,271.525364852706L574.4782427592206,272.9614356483486L575.2537552686516,276.2783333957549L572.9442619713349,277.6854312158769L570.6432907895064,277.6854312158769L571.4102811834493,281.46476154834386L569.8848225110519,282.40440415689005L569.1178321171091,280.5240966092553L567.5838513292234,280.98410525365324L566.8168609352806,280.5240966092553L567.5838513292234,280.04291607462204L566.8168609352806,280.04291607462204L565.2743580319067,279.1006978401877L564.5073676379639,277.2236541145889L561.4479281776809,276.74062072315536L560.680937783738,274.38454633847255L562.2149185716237,272.9614356483486L559.9139473897952,266.766781916777L560.680937783738,265.3200860699969L556.8374636985357,260.996959329673L554.5364925167073,260.996959329673L554.5364925167073,258.5961627478963Z" box-shadow="inset 0 0 2px lightgray"></path></g><g class="sf2368hai_nan"><path fill="rgb(146,200,255)" stroke="rgb(255,255,255)" d="M589.8180506380769,438.9768416921361L593.6615247232793,436.53566510721043L595.1869833956767,433.68254861779315L598.254944971448,432.8663546390799L602.0984190566503,432.04970384102546L605.1578585169334,432.04970384102546L606.691839304819,430.8238657783926L607.46735181425,430.8238657783926L611.3023037839641,433.68254861779315L612.8277624563616,433.2835773716197L607.46735181425,441.0081363542338L606.691839304819,445.46751494727323L603.6238777290478,446.27693512151126L602.0984190566503,448.3076437695754L600.5644382687648,448.3076437695754L599.0219353653907,450.7213455997809L592.8945343293365,449.10663317948L589.8180506380769,447.49926757099126Z" box-shadow="inset 0 0 2px lightgray"></path></g><g class="sf2368tai_wan"><path fill="rgb(146,200,255)" stroke="rgb(255,255,255)" d="M705.6421222389313,385.51957102922825L706.409112632874,385.93340020211144L704.8666097295002,388.4790334664812L705.6421222389313,390.1668636711138L703.3326289416143,395.2069204900653L701.0401798752744,404.0032602930041L697.9722182995029,408.1569622073324L696.429715396129,413.97200850254103L695.6627250021861,415.21280055711907L694.8957346082434,411.48694296944376L691.0693047540174,408.9879468416759L689.535323966132,404.41089987405155L690.3023143600747,398.57098144256133L697.9722182995029,385.51957102922825L702.5656385476716,382.97697585747864Z" box-shadow="inset 0 0 2px lightgray"></path></g><g class="sf2368bei_jing"><path fill="rgb(146,200,255)" stroke="rgb(255,255,255)" d="M666.5256121478474,227.5659708145157L665.7586217539043,228.5696648064324L664.9916313599617,229.0821628385105L661.1481572747592,230.08389953716852L661.9151476687022,232.07241939783552L661.9151476687022,233.5798710573577L661.1481572747592,234.57585556124752L658.8557082084192,234.57585556124752L657.3217274205333,236.05642756818713L655.7792245171596,234.57585556124752L651.9527946629337,235.57057717852734L649.6518234811052,234.0669549469746L648.8848330871623,230.57316831371452L653.478253335331,227.0748023018939L651.9527946629337,223.5493303218807L655.0122341232167,223.0331466456825L655.7792245171596,221.0099539342068L658.0887178144762,221.0099539342068L657.3217274205333,219.48904347651614L659.6226986023618,217.97639676069832L662.682138062645,222.02221752320918L666.5256121478474,222.53908098506008L664.9916313599617,224.04274718801054Z" box-shadow="inset 0 0 2px lightgray"></path></g><g class="sf2368tian_jin"><path fill="rgb(146,200,255)" stroke="rgb(255,255,255)" d="M661.1481572747592,234.57585556124752L661.9151476687022,233.5798710573577L664.2161188505306,234.0669549469746L664.2161188505306,232.07241939783552L664.9916313599617,229.0821628385105L665.7586217539043,228.5696648064324L666.5256121478474,227.5659708145157L668.8180612141875,229.0821628385105L668.8180612141875,230.08389953716852L667.2926025417901,230.08389953716852L667.2926025417901,232.58261810647144L668.8180612141875,234.57585556124752L671.1190323960161,234.57585556124752L670.3520420020732,236.56404144252605L671.8860227899588,238.53621600342439L671.8860227899588,239.04223725251876L670.3520420020732,240.0313439689058L668.0595929357328,245.44953877420573L664.9916313599617,246.43072802275935L660.3896889963047,243.48354460533903L660.3896889963047,242.0058644407476L661.9151476687022,240.0313439689058Z" box-shadow="inset 0 0 2px lightgray"></path></g><g class="sf2368shang_hai"><path fill="rgb(146,200,255)" stroke="rgb(255,255,255)" d="M697.1967057900717,326.3776424215535L699.5061990873885,321.9020138498487L701.0401798752744,321.4423074758928L698.7392086934458,319.20056972434577L699.5061990873885,317.8369334770469L706.409112632874,320.54224229772757L705.6421222389313,325.0441037192334L706.409112632874,328.6126816196659L700.2731894813314,329.96115963463546Z" box-shadow="inset 0 0 2px lightgray"></path></g><g class="sf2368xiang_gang"><path fill="rgb(146,200,255)" stroke="rgb(255,255,255)" d="M641.9819195416771,410.6575467362077L641.2149291477342,413.1441712509933L639.6724262443603,413.1441712509933L635.8459963901345,413.1441712509933L635.0790059961917,412.7208549222642L635.8459963901345,410.6575467362077L638.1384454564746,409.4124674252124L639.6724262443603,409.4124674252124L640.4479387537914,409.4124674252124L640.4479387537914,410.6575467362077Z" box-shadow="inset 0 0 2px lightgray"></path></g><g class="sf2368ao_men"><path fill="rgb(146,200,255)" stroke="rgb(255,255,255)" d="M633.1530078958463,412.98774401357764L633.2552732817053,413.3465791169499L632.7780348143632,413.5029640580264L632.6757694285042,412.6196070540773L632.9655213551048,412.6196070540773Z" box-shadow="inset 0 0 2px lightgray"></path></g></g></svg>